SplineFontDB: 3.2
FontName: FdSymbolA-Demi
FullName: FdSymbolA-Demi
FamilyName: FdSymbolA
Weight: Demi
Copyright: Copyright (c) 2011-2025, Michael Ummels. This Font Software is licensed under the SIL Open Font License, Version 1.1.
Version: 1.010
ItalicAngle: 0
UnderlinePosition: -100
UnderlineWidth: 50
Ascent: 800
Descent: 200
InvalidEm: 0
LayerCount: 2
Layer: 0 0 "Back" 1
Layer: 1 0 "Fore" 0
OS2Version: 0
OS2_WeightWidthSlopeOnly: 0
OS2_UseTypoMetrics: 0
CreationTime: 1739799028
ModificationTime: 1739799028
OS2TypoAscent: 0
OS2TypoAOffset: 1
OS2TypoDescent: 0
OS2TypoDOffset: 1
OS2TypoLinegap: 0
OS2WinAscent: 0
OS2WinAOffset: 1
OS2WinDescent: 0
OS2WinDOffset: 1
HheadAscent: 0
HheadAOffset: 1
HheadDescent: 0
HheadDOffset: 1
OS2Vendor: 'PfEd'
DEI: 91125
Encoding: Custom
UnicodeInterp: none
NameList: AGL For New Fonts
DisplaySize: -48
AntiAlias: 1
FitToEm: 0
BeginPrivate: 2
BlueValues 31 [-10 0 546 556 707 717 754 764]
OtherBlues 11 [-230 -220]
EndPrivate
BeginChars: 256 204

StartChar: dotmath
Encoding: 0 8901 0
Width: 348
Flags: HW
HStem: 216 168<136.513 211.487>
VStem: 90 168<262.513 337.487>
LayerCount: 2
Fore
SplineSet
258 300 m 0
 258 283 239 265 224 250 c 0
 209 235 191 216 174 216 c 0
 157 216 139 235 124 250 c 0
 109 265 90 283 90 300 c 0
 90 317 109 335 124 350 c 0
 139 365 157 384 174 384 c 0
 191 384 209 365 224 350 c 0
 239 335 258 317 258 300 c 0
EndSplineSet
EndChar

StartChar: sym000
Encoding: 1 -1 1
Width: 706
Flags: HW
HStem: 216 168<136.513 211.487 494.513 569.487>
VStem: 90 168<262.513 337.487> 448 168<262.513 337.487>
LayerCount: 2
Fore
SplineSet
258 300 m 0
 258 283 239 265 224 250 c 0
 209 235 191 216 174 216 c 0
 157 216 139 235 124 250 c 0
 109 265 90 283 90 300 c 0
 90 317 109 335 124 350 c 0
 139 365 157 384 174 384 c 0
 191 384 209 365 224 350 c 0
 239 335 258 317 258 300 c 0
616 300 m 0
 616 283 597 265 582 250 c 0
 567 235 549 216 532 216 c 0
 515 216 497 235 482 250 c 0
 467 265 448 283 448 300 c 0
 448 317 467 335 482 350 c 0
 497 365 515 384 532 384 c 0
 549 384 567 365 582 350 c 0
 597 335 616 317 616 300 c 0
EndSplineSet
EndChar

StartChar: uni2236
Encoding: 2 8758 2
Width: 348
Flags: HW
HStem: 37 168<136.513 211.487> 395 168<136.513 211.487>
VStem: 90 168<83.5132 158.487 441.513 516.487>
LayerCount: 2
Fore
SplineSet
258 121 m 0
 258 104 239 86 224 71 c 0
 209 56 191 37 174 37 c 0
 157 37 139 56 124 71 c 0
 109 86 90 104 90 121 c 0
 90 138 109 156 124 171 c 0
 139 186 157 205 174 205 c 0
 191 205 209 186 224 171 c 0
 239 156 258 138 258 121 c 0
258 479 m 0
 258 462 239 444 224 429 c 0
 209 414 191 395 174 395 c 0
 157 395 139 414 124 429 c 0
 109 444 90 462 90 479 c 0
 90 496 109 514 124 529 c 0
 139 544 157 563 174 563 c 0
 191 563 209 544 224 529 c 0
 239 514 258 496 258 479 c 0
EndSplineSet
EndChar

StartChar: sym001
Encoding: 3 -1 3
Width: 671
Flags: HW
HStem: 89 168<171.436 246.487> 343 168<424.513 499.487>
VStem: 125 168<135.669 210.564> 378 168<388.687 464.331>
LayerCount: 2
Fore
SplineSet
125 173 m 0
 125 198 184 257 209 257 c 0
 226 257 244 239 259 224 c 0
 274 209 293 190 293 173 c 0
 293 157 274 138 259 123 c 0
 244 108 226 89 209 89 c 0
 192 89 173 108 158 123 c 0
 143 138 125 157 125 173 c 0
546 427 m 0
 546 410 527 391 512 376 c 0
 497 361 479 343 462 343 c 0
 445 343 427 361 412 376 c 0
 397 391 378 410 378 427 c 0
 378 443 397 462 412 477 c 0
 427 492 445 511 462 511 c 0
 479 511 497 492 512 477 c 0
 527 462 546 443 546 427 c 0
EndSplineSet
EndChar

StartChar: sym002
Encoding: 4 -1 4
Width: 671
Flags: HW
HStem: 89 168<424.513 499.487> 343 168<171.436 246.487>
VStem: 125 168<389.436 464.331> 378 168<135.669 211.313>
LayerCount: 2
Fore
SplineSet
546 173 m 0
 546 157 527 138 512 123 c 0
 497 108 479 89 462 89 c 0
 445 89 427 108 412 123 c 0
 397 138 378 157 378 173 c 0
 378 190 397 209 412 224 c 0
 427 239 445 257 462 257 c 0
 479 257 497 239 512 224 c 0
 527 209 546 190 546 173 c 0
209 343 m 0
 184 343 125 402 125 427 c 0
 125 443 143 462 158 477 c 0
 173 492 192 511 209 511 c 0
 226 511 244 492 259 477 c 0
 274 462 293 443 293 427 c 0
 293 410 274 391 259 376 c 0
 244 361 226 343 209 343 c 0
EndSplineSet
EndChar

StartChar: uni22EF
Encoding: 5 8943 5
Width: 1064
Flags: HW
HStem: 216 168<136.513 211.487 494.513 569.487 852.513 927.487>
VStem: 90 168<262.513 337.487> 448 168<262.513 337.487> 806 168<262.513 337.487>
CounterMasks: 1 70
LayerCount: 2
Fore
SplineSet
258 300 m 0
 258 283 239 265 224 250 c 0
 209 235 191 216 174 216 c 0
 157 216 139 235 124 250 c 0
 109 265 90 283 90 300 c 0
 90 317 109 335 124 350 c 0
 139 365 157 384 174 384 c 0
 191 384 209 365 224 350 c 0
 239 335 258 317 258 300 c 0
616 300 m 0
 616 283 597 265 582 250 c 0
 567 235 549 216 532 216 c 0
 515 216 497 235 482 250 c 0
 467 265 448 283 448 300 c 0
 448 317 467 335 482 350 c 0
 497 365 515 384 532 384 c 0
 549 384 567 365 582 350 c 0
 597 335 616 317 616 300 c 0
974 300 m 0
 974 283 955 265 940 250 c 0
 925 235 907 216 890 216 c 0
 873 216 855 235 840 250 c 0
 825 265 806 283 806 300 c 0
 806 317 825 335 840 350 c 0
 855 365 873 384 890 384 c 0
 907 384 925 365 940 350 c 0
 955 335 974 317 974 300 c 0
EndSplineSet
EndChar

StartChar: uni22EE
Encoding: 6 8942 6
Width: 348
Flags: HW
HStem: -142 168<136.513 211.487> 216 168<136.513 211.487> 574 168<136.513 211.487>
VStem: 90 168<-95.4868 -20.5132 262.513 337.487 620.513 695.487>
CounterMasks: 1 e0
LayerCount: 2
Fore
SplineSet
258 -58 m 0
 258 -75 239 -93 224 -108 c 0
 209 -123 191 -142 174 -142 c 0
 157 -142 139 -123 124 -108 c 0
 109 -93 90 -75 90 -58 c 0
 90 -41 109 -23 124 -8 c 0
 139 7 157 26 174 26 c 0
 191 26 209 7 224 -8 c 0
 239 -23 258 -41 258 -58 c 0
258 300 m 0
 258 283 239 265 224 250 c 0
 209 235 191 216 174 216 c 0
 157 216 139 235 124 250 c 0
 109 265 90 283 90 300 c 0
 90 317 109 335 124 350 c 0
 139 365 157 384 174 384 c 0
 191 384 209 365 224 350 c 0
 239 335 258 317 258 300 c 0
258 658 m 0
 258 641 239 623 224 608 c 0
 209 593 191 574 174 574 c 0
 157 574 139 593 124 608 c 0
 109 623 90 641 90 658 c 0
 90 675 109 693 124 708 c 0
 139 723 157 742 174 742 c 0
 191 742 209 723 224 708 c 0
 239 693 258 675 258 658 c 0
EndSplineSet
EndChar

StartChar: uni22F0
Encoding: 7 8944 7
Width: 924
Flags: HW
HStem: -37 168<171.436 246.487> 216 168<424.513 499.487> 469 168<677.513 752.917>
VStem: 125 168<9.43555 84.4868> 378 168<262.513 337.487> 631 168<515.513 591.313>
CounterMasks: 1 fc
LayerCount: 2
Fore
SplineSet
209 -37 m 0
 184 -37 125 22 125 47 c 0
 125 64 143 82 158 97 c 0
 173 112 192 131 209 131 c 0
 226 131 244 112 259 97 c 0
 274 82 293 64 293 47 c 0
 293 30 274 11 259 -4 c 0
 244 -19 226 -37 209 -37 c 0
546 300 m 0
 546 283 527 265 512 250 c 0
 497 235 479 216 462 216 c 0
 445 216 427 235 412 250 c 0
 397 265 378 283 378 300 c 0
 378 317 397 335 412 350 c 0
 427 365 445 384 462 384 c 0
 479 384 497 365 512 350 c 0
 527 335 546 317 546 300 c 0
799 553 m 0
 799 536 780 518 765 503 c 0
 751 488 732 469 715 469 c 0
 698 469 680 488 665 503 c 0
 650 518 631 536 631 553 c 0
 631 570 650 589 665 604 c 0
 680 619 698 637 715 637 c 0
 732 637 751 619 765 604 c 0
 780 589 799 570 799 553 c 0
EndSplineSet
EndChar

StartChar: uni22F1
Encoding: 8 8945 8
Width: 924
Flags: HW
HStem: -37 168<677.513 752.917> 216 168<424.513 499.487> 469 168<171.436 246.487>
VStem: 125 168<515.513 590.564> 378 168<262.513 337.487> 631 168<8.68736 84.4868>
CounterMasks: 1 fc
LayerCount: 2
Fore
SplineSet
799 47 m 0
 799 30 780 11 765 -4 c 0
 751 -19 732 -37 715 -37 c 0
 698 -37 680 -19 665 -4 c 0
 650 11 631 30 631 47 c 0
 631 64 650 82 665 97 c 0
 680 112 698 131 715 131 c 0
 732 131 751 112 765 97 c 0
 780 82 799 64 799 47 c 0
546 300 m 0
 546 283 527 265 512 250 c 0
 497 235 479 216 462 216 c 0
 445 216 427 235 412 250 c 0
 397 265 378 283 378 300 c 0
 378 317 397 335 412 350 c 0
 427 365 445 384 462 384 c 0
 479 384 497 365 512 350 c 0
 527 335 546 317 546 300 c 0
125 553 m 0
 125 578 184 637 209 637 c 0
 226 637 244 619 259 604 c 0
 274 589 293 570 293 553 c 0
 293 536 274 518 259 503 c 0
 244 488 226 469 209 469 c 0
 192 469 173 488 158 503 c 0
 143 518 125 536 125 553 c 0
EndSplineSet
EndChar

StartChar: sym003
Encoding: 9 -1 9
Width: 720
Flags: HW
HStem: 33 168<163.513 238.564> 216 168<480.687 556.487> 399 168<163.513 238.564>
VStem: 117 168<79.4355 154.331 445.669 520.564> 435 168<262.513 337.487>
CounterMasks: 1 e0
LayerCount: 2
Fore
SplineSet
603 300 m 0
 603 283 584 265 569 250 c 0
 554 235 536 216 519 216 c 0
 502 216 483 235 468 250 c 0
 453 265 435 283 435 300 c 0
 435 317 453 335 468 350 c 0
 483 365 502 384 519 384 c 0
 536 384 554 365 569 350 c 0
 584 335 603 317 603 300 c 0
201 567 m 0
 226 567 285 508 285 483 c 0
 285 467 267 448 252 433 c 0
 237 418 218 399 201 399 c 0
 184 399 166 418 151 433 c 0
 136 448 117 467 117 483 c 0
 117 500 136 519 151 534 c 0
 166 549 184 567 201 567 c 0
285 117 m 0
 285 92 226 33 201 33 c 0
 184 33 166 51 151 66 c 0
 136 81 117 100 117 117 c 0
 117 133 136 152 151 167 c 0
 166 182 184 201 201 201 c 0
 218 201 237 182 252 167 c 0
 267 152 285 133 285 117 c 0
EndSplineSet
EndChar

StartChar: therefore
Encoding: 10 8756 10
Width: 720
Flags: HW
HStem: 57 168<139.436 214.331 505.669 580.564> 375 168<322.513 397.487>
VStem: 93 168<103.513 178.564> 276 168<420.687 496.487> 459 168<103.513 178.564>
CounterMasks: 1 38
LayerCount: 2
Fore
SplineSet
444 459 m 0
 444 442 425 423 410 408 c 0
 395 393 377 375 360 375 c 0
 343 375 325 393 310 408 c 0
 295 423 276 442 276 459 c 0
 276 476 295 494 310 509 c 0
 325 524 343 543 360 543 c 0
 377 543 395 524 410 509 c 0
 425 494 444 476 444 459 c 0
93 141 m 0
 93 166 152 225 177 225 c 0
 193 225 212 207 227 192 c 0
 242 177 261 158 261 141 c 0
 261 124 242 106 227 91 c 0
 212 76 193 57 177 57 c 0
 160 57 141 76 126 91 c 0
 111 106 93 124 93 141 c 0
543 225 m 0
 568 225 627 166 627 141 c 0
 627 124 609 106 594 91 c 0
 579 76 560 57 543 57 c 0
 527 57 508 76 493 91 c 0
 478 106 459 124 459 141 c 0
 459 158 478 177 493 192 c 0
 508 207 527 225 543 225 c 0
EndSplineSet
EndChar

StartChar: sym004
Encoding: 11 -1 11
Width: 720
Flags: HW
HStem: 33 168<481.436 556.487> 216 168<163.513 239.313> 399 168<481.436 556.487>
VStem: 117 168<262.513 337.487> 435 168<79.4355 154.331 445.669 520.564>
CounterMasks: 1 e0
LayerCount: 2
Fore
SplineSet
285 300 m 0
 285 283 267 265 252 250 c 0
 237 235 218 216 201 216 c 0
 184 216 166 235 151 250 c 0
 136 265 117 283 117 300 c 0
 117 317 136 335 151 350 c 0
 166 365 184 384 201 384 c 0
 218 384 237 365 252 350 c 0
 267 335 285 317 285 300 c 0
519 33 m 0
 494 33 435 92 435 117 c 0
 435 133 453 152 468 167 c 0
 483 182 502 201 519 201 c 0
 536 201 554 182 569 167 c 0
 584 152 603 133 603 117 c 0
 603 100 584 81 569 66 c 0
 554 51 536 33 519 33 c 0
435 483 m 0
 435 508 494 567 519 567 c 0
 536 567 554 549 569 534 c 0
 584 519 603 500 603 483 c 0
 603 467 584 448 569 433 c 0
 554 418 536 399 519 399 c 0
 502 399 483 418 468 433 c 0
 453 448 435 467 435 483 c 0
EndSplineSet
EndChar

StartChar: uni2235
Encoding: 12 8757 12
Width: 720
Flags: HW
HStem: 57 168<322.513 397.487> 375 168<139.436 214.331 505.669 580.564>
VStem: 93 168<421.436 496.487> 276 168<103.513 179.313> 459 168<421.436 496.487>
CounterMasks: 1 38
LayerCount: 2
Fore
SplineSet
444 141 m 0
 444 124 425 106 410 91 c 0
 395 76 377 57 360 57 c 0
 343 57 325 76 310 91 c 0
 295 106 276 124 276 141 c 0
 276 158 295 177 310 192 c 0
 325 207 343 225 360 225 c 0
 377 225 395 207 410 192 c 0
 425 177 444 158 444 141 c 0
627 459 m 0
 627 434 568 375 543 375 c 0
 527 375 508 393 493 408 c 0
 478 423 459 442 459 459 c 0
 459 476 478 494 493 509 c 0
 508 524 527 543 543 543 c 0
 560 543 579 524 594 509 c 0
 609 494 627 476 627 459 c 0
177 375 m 0
 152 375 93 434 93 459 c 0
 93 476 111 494 126 509 c 0
 141 524 160 543 177 543 c 0
 193 543 212 524 227 509 c 0
 242 494 261 476 261 459 c 0
 261 442 242 423 227 408 c 0
 212 393 193 375 177 375 c 0
EndSplineSet
EndChar

StartChar: uni2237
Encoding: 13 8759 13
Width: 720
Flags: HW
HStem: 30 168<136.513 211.487 508.513 583.487> 402 168<136.513 211.487 508.513 583.487>
VStem: 90 168<76.5132 151.487 448.513 523.487> 462 168<76.5132 151.487 448.513 523.487>
LayerCount: 2
Fore
SplineSet
630 486 m 0
 630 469 611 451 596 436 c 0
 581 421 563 402 546 402 c 0
 529 402 511 421 496 436 c 0
 481 451 462 469 462 486 c 0
 462 503 481 521 496 536 c 0
 511 551 529 570 546 570 c 0
 563 570 581 551 596 536 c 0
 611 521 630 503 630 486 c 0
258 486 m 0
 258 469 239 451 224 436 c 0
 209 421 191 402 174 402 c 0
 157 402 139 421 124 436 c 0
 109 451 90 469 90 486 c 0
 90 503 109 521 124 536 c 0
 139 551 157 570 174 570 c 0
 191 570 209 551 224 536 c 0
 239 521 258 503 258 486 c 0
258 114 m 0
 258 97 239 79 224 64 c 0
 209 49 191 30 174 30 c 0
 157 30 139 49 124 64 c 0
 109 79 90 97 90 114 c 0
 90 131 109 149 124 164 c 0
 139 179 157 198 174 198 c 0
 191 198 209 179 224 164 c 0
 239 149 258 131 258 114 c 0
630 114 m 0
 630 97 611 79 596 64 c 0
 581 49 563 30 546 30 c 0
 529 30 511 49 496 64 c 0
 481 79 462 97 462 114 c 0
 462 131 481 149 496 164 c 0
 511 179 529 198 546 198 c 0
 563 198 581 179 596 164 c 0
 611 149 630 131 630 114 c 0
EndSplineSet
EndChar

StartChar: minus
Encoding: 14 8722 14
Width: 720
Flags: HW
HStem: 263 74<90 630>
LayerCount: 2
Fore
SplineSet
630 337 m 1
 630 263 l 1
 90 263 l 1
 90 337 l 1
 630 337 l 1
EndSplineSet
EndChar

StartChar: uni2215
Encoding: 15 8725 15
Width: 720
Flags: HW
LayerCount: 2
Fore
SplineSet
580 572 m 1
 632 520 l 1
 140 28 l 1
 88 80 l 1
 580 572 l 1
EndSplineSet
EndChar

StartChar: uni2216
Encoding: 16 8726 16
Width: 720
Flags: HW
LayerCount: 2
Fore
SplineSet
88 520 m 1
 140 572 l 1
 632 80 l 1
 580 28 l 1
 88 520 l 1
EndSplineSet
EndChar

StartChar: plus
Encoding: 17 43 17
Width: 720
Flags: HW
HStem: 263 74<90 323 397 630>
VStem: 323 74<30 263 337 570>
LayerCount: 2
Fore
SplineSet
323 570 m 1
 397 570 l 1
 397 337 l 1
 630 337 l 1
 630 263 l 1
 397 263 l 1
 397 30 l 1
 323 30 l 1
 323 263 l 1
 90 263 l 1
 90 337 l 1
 323 337 l 1
 323 570 l 1
EndSplineSet
EndChar

StartChar: multiply
Encoding: 18 215 18
Width: 720
Flags: HW
LayerCount: 2
Fore
SplineSet
88 520 m 1
 140 572 l 1
 360 352 l 1
 580 572 l 1
 632 520 l 1
 412 300 l 1
 632 80 l 1
 580 28 l 1
 360 248 l 1
 140 28 l 1
 88 80 l 1
 308 300 l 1
 88 520 l 1
EndSplineSet
EndChar

StartChar: uni2238
Encoding: 19 8760 19
Width: 720
Flags: HW
HStem: 263 74<90 630> 427 126<325.599 394.401>
VStem: 297 126<455.599 524.401>
LayerCount: 2
Fore
SplineSet
90 263 m 1
 90 337 l 1
 630 337 l 1
 630 263 l 1
 90 263 l 1
360 553 m 0
 378 553 423 508 423 490 c 0
 423 472 378 427 360 427 c 0
 342 427 297 472 297 490 c 0
 297 508 342 553 360 553 c 0
EndSplineSet
EndChar

StartChar: uni2A2A
Encoding: 20 10794 20
Width: 720
Flags: HW
HStem: 47 126<325.599 394.401> 263 74<90 630>
VStem: 297 126<75.5988 144.401>
LayerCount: 2
Fore
SplineSet
630 337 m 1
 630 263 l 1
 90 263 l 1
 90 337 l 1
 630 337 l 1
360 173 m 0
 378 173 423 128 423 110 c 0
 423 92 378 47 360 47 c 0
 342 47 297 92 297 110 c 0
 297 128 342 173 360 173 c 0
EndSplineSet
EndChar

StartChar: divide
Encoding: 21 247 21
Width: 720
Flags: HW
HStem: 47 126<325.599 394.401> 263 74<90 630> 427 126<325.599 394.401>
VStem: 297 126<75.5988 144.401 455.599 524.401>
CounterMasks: 1 e0
LayerCount: 2
Fore
SplineSet
630 337 m 1
 630 263 l 1
 90 263 l 1
 90 337 l 1
 630 337 l 1
360 553 m 0
 378 553 423 508 423 490 c 0
 423 472 378 427 360 427 c 0
 342 427 297 472 297 490 c 0
 297 508 342 553 360 553 c 0
360 173 m 0
 378 173 423 128 423 110 c 0
 423 92 378 47 360 47 c 0
 342 47 297 92 297 110 c 0
 297 128 342 173 360 173 c 0
EndSplineSet
EndChar

StartChar: uni2A2B
Encoding: 22 10795 22
Width: 720
Flags: HW
HStem: 47 126<495.599 564.401> 263 74<90 630> 427 126<155.599 224.401>
VStem: 127 126<455.599 524.401> 467 126<75.5988 144.401>
CounterMasks: 1 e0
LayerCount: 2
Fore
SplineSet
630 337 m 1
 630 263 l 1
 90 263 l 1
 90 337 l 1
 630 337 l 1
190 553 m 0
 208 553 253 508 253 490 c 0
 253 472 208 427 190 427 c 0
 172 427 127 472 127 490 c 0
 127 508 172 553 190 553 c 0
530 173 m 0
 548 173 593 128 593 110 c 0
 593 92 548 47 530 47 c 0
 512 47 467 92 467 110 c 0
 467 128 512 173 530 173 c 0
EndSplineSet
EndChar

StartChar: uni2A2C
Encoding: 23 10796 23
Width: 720
Flags: HW
HStem: 47 126<155.599 224.401> 263 74<90 630> 427 126<495.599 564.401>
VStem: 127 126<75.5988 144.401> 467 126<455.599 524.401>
CounterMasks: 1 e0
LayerCount: 2
Fore
SplineSet
630 337 m 1
 630 263 l 1
 90 263 l 1
 90 337 l 1
 630 337 l 1
530 553 m 0
 548 553 593 508 593 490 c 0
 593 472 548 427 530 427 c 0
 512 427 467 472 467 490 c 0
 467 508 512 553 530 553 c 0
190 173 m 0
 208 173 253 128 253 110 c 0
 253 92 208 47 190 47 c 0
 172 47 127 92 127 110 c 0
 127 128 172 173 190 173 c 0
EndSplineSet
EndChar

StartChar: uni223A
Encoding: 24 8762 24
Width: 720
Flags: HW
HStem: 47 126<155.599 224.401 495.599 564.401> 263 74<90 630> 427 126<155.599 224.401 495.599 564.401>
VStem: 127 126<75.5988 144.401 455.599 524.401> 467 126<75.5988 144.401 455.599 524.401>
CounterMasks: 1 e0
LayerCount: 2
Fore
SplineSet
630 337 m 1
 630 263 l 1
 90 263 l 1
 90 337 l 1
 630 337 l 1
190 553 m 0
 208 553 253 508 253 490 c 0
 253 472 208 427 190 427 c 0
 172 427 127 472 127 490 c 0
 127 508 172 553 190 553 c 0
530 553 m 0
 548 553 593 508 593 490 c 0
 593 472 548 427 530 427 c 0
 512 427 467 472 467 490 c 0
 467 508 512 553 530 553 c 0
190 173 m 0
 208 173 253 128 253 110 c 0
 253 92 208 47 190 47 c 0
 172 47 127 92 127 110 c 0
 127 128 172 173 190 173 c 0
530 173 m 0
 548 173 593 128 593 110 c 0
 593 92 548 47 530 47 c 0
 512 47 467 92 467 110 c 0
 467 128 512 173 530 173 c 0
EndSplineSet
EndChar

StartChar: plusminus
Encoding: 25 177 25
Width: 720
Flags: HW
HStem: -38 74<90 630> 331 74<90 323 397 630>
VStem: 323 74<97 331 405 638>
LayerCount: 2
Fore
SplineSet
323 638 m 1
 397 638 l 1
 397 405 l 1
 630 405 l 1
 630 331 l 1
 397 331 l 1
 397 97 l 1
 323 97 l 1
 323 331 l 1
 90 331 l 1
 90 405 l 1
 323 405 l 1
 323 638 l 1
630 36 m 1
 630 -38 l 1
 90 -38 l 1
 90 36 l 1
 630 36 l 1
EndSplineSet
EndChar

StartChar: uni2213
Encoding: 26 8723 26
Width: 720
Flags: HW
HStem: 195 74<90 323 397 630> 564 74<90 630>
VStem: 323 74<-38 195 269 503>
LayerCount: 2
Fore
SplineSet
323 503 m 1
 397 503 l 1
 397 269 l 1
 630 269 l 1
 630 195 l 1
 397 195 l 1
 397 -38 l 1
 323 -38 l 1
 323 195 l 1
 90 195 l 1
 90 269 l 1
 323 269 l 1
 323 503 l 1
630 638 m 1
 630 564 l 1
 90 564 l 1
 90 638 l 1
 630 638 l 1
EndSplineSet
EndChar

StartChar: uni2214
Encoding: 27 8724 27
Width: 720
Flags: HW
HStem: 195 74<90 323 397 630> 538 126<326.258 393.742>
VStem: 297 126<566.17 634.831> 323 74<-38 195 269 503>
LayerCount: 2
Fore
SplineSet
323 503 m 1xd0
 397 503 l 1
 397 269 l 1
 630 269 l 1
 630 195 l 1
 397 195 l 1
 397 -38 l 1
 323 -38 l 1
 323 195 l 1
 90 195 l 1
 90 269 l 1
 323 269 l 1
 323 503 l 1xd0
423 601 m 0xe0
 423 588 409 574 398 563 c 0
 387 551 373 538 360 538 c 0
 347 538 333 551 322 563 c 0
 311 574 297 588 297 601 c 0
 297 613 311 627 322 638 c 0
 333 650 347 664 360 664 c 0
 373 664 387 650 398 638 c 0
 409 627 423 613 423 601 c 0xe0
EndSplineSet
EndChar

StartChar: uni2A25
Encoding: 28 10789 28
Width: 720
Flags: HW
HStem: -64 126<326.258 393.742> 331 74<90 323 397 630>
VStem: 297 126<-34.8313 33.8304> 323 74<97 331 405 638>
LayerCount: 2
Fore
SplineSet
323 638 m 1xd0
 397 638 l 1
 397 405 l 1
 630 405 l 1
 630 331 l 1
 397 331 l 1
 397 97 l 1
 323 97 l 1
 323 331 l 1
 90 331 l 1
 90 405 l 1
 323 405 l 1
 323 638 l 1xd0
423 -1 m 0xe0
 423 -13 409 -27 398 -38 c 0
 387 -50 373 -64 360 -64 c 0
 347 -64 333 -50 322 -38 c 0
 311 -27 297 -13 297 -1 c 0
 297 12 311 26 322 37 c 0
 333 49 347 62 360 62 c 0
 373 62 387 49 398 37 c 0
 409 26 423 12 423 -1 c 0xe0
EndSplineSet
EndChar

StartChar: uni2A30
Encoding: 29 10800 29
Width: 720
Flags: HW
HStem: 511 126<326.258 393.742>
VStem: 297 126<539.17 607.831>
LayerCount: 2
Fore
SplineSet
88 452 m 1
 140 505 l 1
 360 285 l 1
 580 505 l 1
 632 452 l 1
 412 232 l 1
 632 13 l 1
 580 -40 l 1
 360 180 l 1
 140 -40 l 1
 88 13 l 1
 308 232 l 1
 88 452 l 1
423 574 m 0
 423 561 409 547 398 536 c 0
 387 524 373 511 360 511 c 0
 347 511 333 524 322 536 c 0
 311 547 297 561 297 574 c 0
 297 586 311 600 322 611 c 0
 333 623 347 637 360 637 c 0
 373 637 387 623 398 611 c 0
 409 600 423 586 423 574 c 0
EndSplineSet
EndChar

StartChar: uni2A31
Encoding: 30 10801 30
Width: 720
Flags: HW
HStem: -38 74<90 630>
LayerCount: 2
Fore
SplineSet
88 587 m 1
 140 640 l 1
 360 420 l 1
 580 640 l 1
 632 587 l 1
 412 368 l 1
 632 148 l 1
 580 95 l 1
 360 315 l 1
 140 95 l 1
 88 148 l 1
 308 368 l 1
 88 587 l 1
630 36 m 1
 630 -38 l 1
 90 -38 l 1
 90 36 l 1
 630 36 l 1
EndSplineSet
EndChar

StartChar: uni22C7
Encoding: 31 8903 31
Width: 720
Flags: HW
HStem: 47 126<325.599 394.401> 263 74<90 271 449 630> 427 126<325.599 394.401>
VStem: 297 126<75.5988 144.401 455.599 524.401>
CounterMasks: 1 e0
LayerCount: 2
Fore
SplineSet
88 520 m 1
 140 572 l 1
 360 352 l 1
 580 572 l 1
 632 520 l 1
 449 337 l 1
 630 337 l 1
 630 263 l 1
 449 263 l 1
 632 80 l 1
 580 28 l 1
 360 248 l 1
 140 28 l 1
 88 80 l 1
 271 263 l 1
 90 263 l 1
 90 337 l 1
 271 337 l 1
 88 520 l 1
360 553 m 0
 378 553 423 508 423 490 c 0
 423 472 378 427 360 427 c 0
 342 427 297 472 297 490 c 0
 297 508 342 553 360 553 c 0
360 173 m 0
 378 173 423 128 423 110 c 0
 423 92 378 47 360 47 c 0
 342 47 297 92 297 110 c 0
 297 128 342 173 360 173 c 0
EndSplineSet
EndChar

StartChar: logicalnot
Encoding: 32 172 32
Width: 720
Flags: HW
HStem: 263 74<90 556>
VStem: 556 74<73 263>
LayerCount: 2
Fore
SplineSet
90 263 m 1
 90 337 l 1
 630 337 l 1
 630 73 l 1
 556 73 l 1
 556 263 l 1
 90 263 l 1
EndSplineSet
EndChar

StartChar: revlogicalnot
Encoding: 33 8976 33
Width: 720
Flags: HW
HStem: 263 74<164 630>
VStem: 90 74<73 263>
LayerCount: 2
Fore
SplineSet
164 263 m 1
 164 73 l 1
 90 73 l 1
 90 337 l 1
 630 337 l 1
 630 263 l 1
 164 263 l 1
EndSplineSet
EndChar

StartChar: uni2A3C
Encoding: 34 10812 34
Width: 720
Flags: HW
HStem: 263 74<90 556>
VStem: 556 74<337 527>
LayerCount: 2
Fore
SplineSet
90 263 m 1
 90 337 l 1
 556 337 l 1
 556 527 l 1
 630 527 l 1
 630 263 l 1
 90 263 l 1
EndSplineSet
EndChar

StartChar: uni2A3D
Encoding: 35 10813 35
Width: 720
Flags: HW
HStem: 263 74<164 630>
VStem: 90 74<337 527>
LayerCount: 2
Fore
SplineSet
630 263 m 1
 90 263 l 1
 90 527 l 1
 164 527 l 1
 164 337 l 1
 630 337 l 1
 630 263 l 1
EndSplineSet
EndChar

StartChar: uni22CB
Encoding: 36 8907 36
Width: 720
Flags: HW
LayerCount: 2
Fore
SplineSet
632 80 m 1
 580 28 l 1
 360 248 l 1
 140 28 l 1
 88 80 l 1
 308 300 l 1
 88 520 l 1
 140 572 l 1
 632 80 l 1
EndSplineSet
EndChar

StartChar: uni22CC
Encoding: 37 8908 37
Width: 720
Flags: HW
LayerCount: 2
Fore
SplineSet
580 572 m 1
 632 520 l 1
 412 300 l 1
 632 80 l 1
 580 28 l 1
 360 248 l 1
 140 28 l 1
 88 80 l 1
 580 572 l 1
EndSplineSet
EndChar

StartChar: uni2A32
Encoding: 38 10802 38
Width: 720
Flags: HW
HStem: 32 74<218 502>
LayerCount: 2
Fore
SplineSet
606 106 m 1
 586 32 l 1
 134 32 l 1
 114 106 l 1
 308 300 l 1
 88 520 l 1
 140 572 l 1
 360 352 l 1
 580 572 l 1
 632 520 l 1
 412 300 l 1
 606 106 l 1
502 106 m 1
 360 248 l 1
 218 106 l 1
 502 106 l 1
EndSplineSet
EndChar

StartChar: uni22CA
Encoding: 39 8906 39
Width: 720
Flags: HW
HStem: 526 20G<534 628>
VStem: 554 74<158 442>
LayerCount: 2
Fore
SplineSet
554 546 m 1
 628 526 l 1
 628 74 l 1
 554 54 l 1
 360 248 l 1
 140 28 l 1
 88 80 l 1
 308 300 l 1
 88 520 l 1
 140 572 l 1
 360 352 l 1
 554 546 l 1
554 442 m 1
 412 300 l 1
 554 158 l 1
 554 442 l 1
EndSplineSet
EndChar

StartChar: sym005
Encoding: 40 -1 40
Width: 720
Flags: HW
HStem: 494 74<218 502>
LayerCount: 2
Fore
SplineSet
114 494 m 1
 134 568 l 1
 586 568 l 1
 606 494 l 1
 412 300 l 1
 632 80 l 1
 580 28 l 1
 360 248 l 1
 140 28 l 1
 88 80 l 1
 308 300 l 1
 114 494 l 1
218 494 m 1
 360 352 l 1
 502 494 l 1
 218 494 l 1
EndSplineSet
EndChar

StartChar: uni22C9
Encoding: 41 8905 41
Width: 720
Flags: HW
HStem: 526 20G<92 186>
VStem: 92 74<158 442>
LayerCount: 2
Fore
SplineSet
166 54 m 1
 92 74 l 1
 92 526 l 1
 166 546 l 1
 360 352 l 1
 580 572 l 1
 632 520 l 1
 412 300 l 1
 632 80 l 1
 580 28 l 1
 360 248 l 1
 166 54 l 1
166 158 m 1
 308 300 l 1
 166 442 l 1
 166 158 l 1
EndSplineSet
EndChar

StartChar: uni22C8
Encoding: 42 8904 42
Width: 720
Flags: HW
HStem: 526 20G<92 186 534 628>
VStem: 92 74<158 442> 554 74<158 442>
LayerCount: 2
Fore
SplineSet
166 54 m 1
 92 74 l 1
 92 526 l 1
 166 546 l 1
 360 352 l 1
 554 546 l 1
 628 526 l 1
 628 74 l 1
 554 54 l 1
 360 248 l 1
 166 54 l 1
554 442 m 1
 412 300 l 1
 554 158 l 1
 554 442 l 1
166 158 m 1
 308 300 l 1
 166 442 l 1
 166 158 l 1
EndSplineSet
EndChar

StartChar: uni29D6
Encoding: 43 10710 43
Width: 720
Flags: HW
HStem: 32 74<218 502> 494 74<218 502>
LayerCount: 2
Fore
SplineSet
606 106 m 1
 586 32 l 1
 134 32 l 1
 114 106 l 1
 308 300 l 1
 114 494 l 1
 134 568 l 1
 586 568 l 1
 606 494 l 1
 412 300 l 1
 606 106 l 1
218 494 m 1
 360 352 l 1
 502 494 l 1
 218 494 l 1
502 106 m 1
 360 248 l 1
 218 106 l 1
 502 106 l 1
EndSplineSet
EndChar

StartChar: sym006
Encoding: 44 -1 44
Width: 720
Flags: HW
HStem: 263 74<339 630>
LayerCount: 2
Fore
SplineSet
272 300 m 1
 81 490 l 1
 134 543 l 1
 339 337 l 1
 630 337 l 1
 630 263 l 1
 339 263 l 1
 134 57 l 1
 81 110 l 1
 272 300 l 1
EndSplineSet
EndChar

StartChar: sym007
Encoding: 45 -1 45
Width: 720
Flags: HW
VStem: 323 74<279 570>
LayerCount: 2
Fore
SplineSet
360 212 m 1
 170 21 l 1
 117 74 l 1
 323 279 l 1
 323 570 l 1
 397 570 l 1
 397 279 l 1
 603 74 l 1
 550 21 l 1
 360 212 l 1
EndSplineSet
EndChar

StartChar: sym008
Encoding: 46 -1 46
Width: 720
Flags: HW
HStem: 263 74<90 381>
LayerCount: 2
Fore
SplineSet
448 300 m 1
 639 110 l 1
 586 57 l 1
 381 263 l 1
 90 263 l 1
 90 337 l 1
 381 337 l 1
 586 543 l 1
 639 490 l 1
 448 300 l 1
EndSplineSet
EndChar

StartChar: sym009
Encoding: 47 -1 47
Width: 720
Flags: HW
VStem: 323 74<30 321>
LayerCount: 2
Fore
SplineSet
360 388 m 1
 550 579 l 1
 603 526 l 1
 397 321 l 1
 397 30 l 1
 323 30 l 1
 323 321 l 1
 117 526 l 1
 170 579 l 1
 360 388 l 1
EndSplineSet
EndChar

StartChar: logicaland
Encoding: 48 8743 48
Width: 720
Flags: HW
LayerCount: 2
Fore
SplineSet
619 61 m 1
 552 30 l 1
 360 445 l 1
 168 30 l 1
 101 61 l 1
 336 570 l 1
 384 570 l 1
 619 61 l 1
EndSplineSet
EndChar

StartChar: logicalor
Encoding: 49 8744 49
Width: 720
Flags: HW
LayerCount: 2
Fore
SplineSet
101 539 m 1
 168 570 l 1
 360 155 l 1
 552 570 l 1
 619 539 l 1
 384 30 l 1
 336 30 l 1
 101 539 l 1
EndSplineSet
EndChar

StartChar: uni27D1
Encoding: 50 10193 50
Width: 720
Flags: HW
HStem: 57 126<325.599 394.401>
VStem: 297 126<85.5988 154.401>
LayerCount: 2
Fore
SplineSet
619 61 m 1
 552 30 l 1
 360 445 l 1
 168 30 l 1
 101 61 l 1
 336 570 l 1
 384 570 l 1
 619 61 l 1
360 183 m 0
 378 183 423 138 423 120 c 0
 423 102 378 57 360 57 c 0
 342 57 297 102 297 120 c 0
 297 138 342 183 360 183 c 0
EndSplineSet
EndChar

StartChar: uni27C7
Encoding: 51 10183 51
Width: 720
Flags: HW
HStem: 417 126<325.599 394.401>
VStem: 297 126<445.599 514.401>
LayerCount: 2
Fore
SplineSet
101 539 m 1
 168 570 l 1
 360 155 l 1
 552 570 l 1
 619 539 l 1
 384 30 l 1
 336 30 l 1
 101 539 l 1
360 543 m 0
 378 543 423 498 423 480 c 0
 423 462 378 417 360 417 c 0
 342 417 297 462 297 480 c 0
 297 498 342 543 360 543 c 0
EndSplineSet
EndChar

StartChar: uni2A55
Encoding: 52 10837 52
Width: 960
Flags: HW
LayerCount: 2
Fore
SplineSet
859 61 m 1
 792 30 l 1
 600 445 l 1
 521 274 l 1
 619 61 l 1
 552 30 l 1
 480 186 l 1
 408 30 l 1
 341 61 l 1
 439 274 l 1
 360 445 l 1
 168 30 l 1
 101 61 l 1
 336 570 l 1
 384 570 l 1
 480 362 l 1
 576 570 l 1
 624 570 l 1
 859 61 l 1
EndSplineSet
EndChar

StartChar: uni2A56
Encoding: 53 10838 53
Width: 960
Flags: HW
LayerCount: 2
Fore
SplineSet
341 539 m 1
 408 570 l 1
 480 414 l 1
 552 570 l 1
 619 539 l 1
 521 326 l 1
 600 155 l 1
 792 570 l 1
 859 539 l 1
 624 30 l 1
 576 30 l 1
 480 238 l 1
 384 30 l 1
 336 30 l 1
 101 539 l 1
 168 570 l 1
 360 155 l 1
 439 326 l 1
 341 539 l 1
EndSplineSet
EndChar

StartChar: uni22CF
Encoding: 54 8911 54
Width: 720
Flags: HW
VStem: 323 74<390.882 570>
LayerCount: 2
Fore
SplineSet
360 331 m 1
 318 217 243 115 152 30 c 1
 102 84 l 1
 229 203 323 359 323 533 c 2
 323 570 l 1
 397 570 l 1
 397 533 l 2
 397 359 491 203 618 84 c 1
 568 30 l 1
 477 115 402 217 360 331 c 1
EndSplineSet
EndChar

StartChar: uni22CE
Encoding: 55 8910 55
Width: 720
Flags: HW
VStem: 323 74<30 209.118>
LayerCount: 2
Fore
SplineSet
360 269 m 1
 402 383 477 485 568 570 c 1
 618 516 l 1
 491 397 397 241 397 67 c 2
 397 30 l 1
 323 30 l 1
 323 67 l 2
 323 241 229 397 102 516 c 1
 152 570 l 1
 243 485 318 383 360 269 c 1
EndSplineSet
EndChar

StartChar: uni22BC
Encoding: 56 8892 56
Width: 720
Flags: HW
HStem: 564 74<90 630>
LayerCount: 2
Fore
SplineSet
619 -6 m 1
 552 -38 l 1
 360 377 l 1
 168 -38 l 1
 101 -6 l 1
 336 503 l 1
 384 503 l 1
 619 -6 l 1
90 564 m 1
 90 638 l 1
 630 638 l 1
 630 564 l 1
 90 564 l 1
EndSplineSet
EndChar

StartChar: uni22BB
Encoding: 57 8891 57
Width: 720
Flags: HW
HStem: -38 74<90 630>
LayerCount: 2
Fore
SplineSet
101 606 m 1
 168 638 l 1
 360 223 l 1
 552 638 l 1
 619 606 l 1
 384 97 l 1
 336 97 l 1
 101 606 l 1
90 -38 m 1
 90 36 l 1
 630 36 l 1
 630 -38 l 1
 90 -38 l 1
EndSplineSet
EndChar

StartChar: uni2A5E
Encoding: 58 10846 58
Width: 720
Flags: HW
HStem: 496 74<90 630> 631 74<90 630>
LayerCount: 2
Fore
SplineSet
619 -74 m 1
 552 -105 l 1
 360 310 l 1
 168 -105 l 1
 101 -74 l 1
 336 435 l 1
 384 435 l 1
 619 -74 l 1
90 496 m 1
 90 570 l 1
 630 570 l 1
 630 496 l 1
 90 496 l 1
90 631 m 1
 90 705 l 1
 630 705 l 1
 630 631 l 1
 90 631 l 1
EndSplineSet
EndChar

StartChar: uni2A63
Encoding: 59 10851 59
Width: 720
Flags: HW
HStem: -105 74<90 630> 30 74<90 630>
LayerCount: 2
Fore
SplineSet
101 674 m 1
 168 705 l 1
 360 290 l 1
 552 705 l 1
 619 674 l 1
 384 165 l 1
 336 165 l 1
 101 674 l 1
90 30 m 1
 90 104 l 1
 630 104 l 1
 630 30 l 1
 90 30 l 1
90 -105 m 1
 90 -31 l 1
 630 -31 l 1
 630 -105 l 1
 90 -105 l 1
EndSplineSet
EndChar

StartChar: union
Encoding: 60 8746 60
Width: 720
Flags: HW
HStem: 30 74<262.536 457.464>
VStem: 90 74<188.949 570> 556 74<188.949 570>
LayerCount: 2
Fore
SplineSet
164 570 m 1
 164 260 l 2
 164 166 258 104 360 104 c 0
 462 104 556 166 556 260 c 2
 556 570 l 1
 630 570 l 1
 630 260 l 2
 630 125 502 30 360 30 c 0
 218 30 90 125 90 260 c 2
 90 570 l 1
 164 570 l 1
EndSplineSet
EndChar

StartChar: intersection
Encoding: 61 8745 61
Width: 720
Flags: HW
HStem: 496 74<262.536 457.464>
VStem: 90 74<30 411.051> 556 74<30 411.051>
LayerCount: 2
Fore
SplineSet
556 30 m 1
 556 340 l 2
 556 434 462 496 360 496 c 0
 258 496 164 434 164 340 c 2
 164 30 l 1
 90 30 l 1
 90 340 l 2
 90 475 218 570 360 570 c 0
 502 570 630 475 630 340 c 2
 630 30 l 1
 556 30 l 1
EndSplineSet
EndChar

StartChar: uni22D3
Encoding: 62 8915 62
Width: 900
Flags: HW
HStem: -60 74<329.614 570.386> 150 74<380.745 519.255>
VStem: 90 74<161.103 660> 278 74<252.407 660> 548 74<252.407 660> 736 74<161.103 660>
LayerCount: 2
Fore
SplineSet
352 660 m 1
 352 298 l 2
 352 252 400 224 450 224 c 0
 500 224 548 252 548 298 c 2
 548 660 l 1
 622 660 l 1
 622 298 l 2
 622 212 541 150 450 150 c 0
 359 150 278 212 278 298 c 2
 278 660 l 1
 352 660 l 1
164 660 m 1
 164 249 l 2
 164 109 300 14 450 14 c 0
 600 14 736 109 736 249 c 2
 736 660 l 1
 810 660 l 1
 810 249 l 2
 810 69 640 -60 450 -60 c 0
 260 -60 90 69 90 249 c 2
 90 660 l 1
 164 660 l 1
EndSplineSet
EndChar

StartChar: uni22D2
Encoding: 63 8914 63
Width: 900
Flags: HW
HStem: 376 74<380.745 519.255> 586 74<329.614 570.386>
VStem: 90 74<-60 438.897> 278 74<-60 347.593> 548 74<-60 347.593> 736 74<-60 438.897>
LayerCount: 2
Fore
SplineSet
548 -60 m 1
 548 302 l 2
 548 348 500 376 450 376 c 0
 400 376 352 348 352 302 c 2
 352 -60 l 1
 278 -60 l 1
 278 302 l 2
 278 388 359 450 450 450 c 0
 541 450 622 388 622 302 c 2
 622 -60 l 1
 548 -60 l 1
736 -60 m 1
 736 351 l 2
 736 491 600 586 450 586 c 0
 300 586 164 491 164 351 c 2
 164 -60 l 1
 90 -60 l 1
 90 351 l 2
 90 531 260 660 450 660 c 0
 640 660 810 531 810 351 c 2
 810 -60 l 1
 736 -60 l 1
EndSplineSet
EndChar

StartChar: uni228D
Encoding: 64 8845 64
Width: 720
Flags: HW
HStem: 30 74<262.536 457.464> 327 126<325.599 394.401>
VStem: 90 74<188.949 570> 297 126<355.599 424.401> 556 74<188.949 570>
CounterMasks: 1 38
LayerCount: 2
Fore
SplineSet
164 570 m 1
 164 260 l 2
 164 166 258 104 360 104 c 0
 462 104 556 166 556 260 c 2
 556 570 l 1
 630 570 l 1
 630 260 l 2
 630 125 502 30 360 30 c 0
 218 30 90 125 90 260 c 2
 90 570 l 1
 164 570 l 1
360 453 m 0
 378 453 423 408 423 390 c 0
 423 372 378 327 360 327 c 0
 342 327 297 372 297 390 c 0
 297 408 342 453 360 453 c 0
EndSplineSet
EndChar

StartChar: uni2A40
Encoding: 65 10816 65
Width: 720
Flags: HW
HStem: 147 126<325.599 394.401> 496 74<262.536 457.464>
VStem: 90 74<30 411.051> 297 126<175.599 244.401> 556 74<30 411.051>
CounterMasks: 1 38
LayerCount: 2
Fore
SplineSet
556 30 m 1
 556 340 l 2
 556 434 462 496 360 496 c 0
 258 496 164 434 164 340 c 2
 164 30 l 1
 90 30 l 1
 90 340 l 2
 90 475 218 570 360 570 c 0
 502 570 630 475 630 340 c 2
 630 30 l 1
 556 30 l 1
360 273 m 0
 378 273 423 228 423 210 c 0
 423 192 378 147 360 147 c 0
 342 147 297 192 297 210 c 0
 297 228 342 273 360 273 c 0
EndSplineSet
EndChar

StartChar: uni228E
Encoding: 66 8846 66
Width: 720
Flags: HW
HStem: 30 74<262.536 457.464> 353 74<233 323 397 487>
VStem: 90 74<188.949 570> 323 74<263 353 427 517> 556 74<188.949 570>
CounterMasks: 1 38
LayerCount: 2
Fore
SplineSet
164 570 m 1
 164 260 l 2
 164 166 258 104 360 104 c 0
 462 104 556 166 556 260 c 2
 556 570 l 1
 630 570 l 1
 630 260 l 2
 630 125 502 30 360 30 c 0
 218 30 90 125 90 260 c 2
 90 570 l 1
 164 570 l 1
323 517 m 1
 397 517 l 1
 397 427 l 1
 487 427 l 1
 487 353 l 1
 397 353 l 1
 397 263 l 1
 323 263 l 1
 323 353 l 1
 233 353 l 1
 233 427 l 1
 323 427 l 1
 323 517 l 1
EndSplineSet
EndChar

StartChar: sym00A
Encoding: 67 -1 67
Width: 720
Flags: HW
HStem: 173 74<233 323 397 487> 496 74<262.536 457.464>
VStem: 90 74<30 411.051> 323 74<83 173 247 337> 556 74<30 411.051>
CounterMasks: 1 38
LayerCount: 2
Fore
SplineSet
556 30 m 1
 556 340 l 2
 556 434 462 496 360 496 c 0
 258 496 164 434 164 340 c 2
 164 30 l 1
 90 30 l 1
 90 340 l 2
 90 475 218 570 360 570 c 0
 502 570 630 475 630 340 c 2
 630 30 l 1
 556 30 l 1
323 337 m 1
 397 337 l 1
 397 247 l 1
 487 247 l 1
 487 173 l 1
 397 173 l 1
 397 83 l 1
 323 83 l 1
 323 173 l 1
 233 173 l 1
 233 247 l 1
 323 247 l 1
 323 337 l 1
EndSplineSet
EndChar

StartChar: uni2294
Encoding: 68 8852 68
Width: 720
Flags: HW
HStem: 30 74<164 556>
VStem: 90 74<104 570> 556 74<104 570>
LayerCount: 2
Fore
SplineSet
90 570 m 1
 164 570 l 1
 164 104 l 1
 556 104 l 1
 556 570 l 1
 630 570 l 1
 630 30 l 1
 90 30 l 1
 90 570 l 1
EndSplineSet
EndChar

StartChar: uni2293
Encoding: 69 8851 69
Width: 720
Flags: HW
HStem: 496 74<164 556>
VStem: 90 74<30 496> 556 74<30 496>
LayerCount: 2
Fore
SplineSet
164 30 m 1
 90 30 l 1
 90 570 l 1
 630 570 l 1
 630 30 l 1
 556 30 l 1
 556 496 l 1
 164 496 l 1
 164 30 l 1
EndSplineSet
EndChar

StartChar: uni2A4F
Encoding: 70 10831 70
Width: 900
Flags: HW
HStem: -60 74<164 736> 128 74<337 563>
VStem: 90 74<14 660> 263 74<202 660> 563 74<202 660> 736 74<14 660>
LayerCount: 2
Fore
SplineSet
90 660 m 1
 164 660 l 1
 164 14 l 1
 736 14 l 1
 736 660 l 1
 810 660 l 1
 810 -60 l 1
 90 -60 l 1
 90 660 l 1
263 660 m 1
 337 660 l 1
 337 202 l 1
 563 202 l 1
 563 660 l 1
 637 660 l 1
 637 128 l 1
 263 128 l 1
 263 660 l 1
EndSplineSet
EndChar

StartChar: uni2A4E
Encoding: 71 10830 71
Width: 900
Flags: HW
HStem: 398 74<337 563> 586 74<164 736>
VStem: 90 74<-60 586> 263 74<-60 398> 563 74<-60 398> 736 74<-60 586>
LayerCount: 2
Fore
SplineSet
164 -60 m 1
 90 -60 l 1
 90 660 l 1
 810 660 l 1
 810 -60 l 1
 736 -60 l 1
 736 586 l 1
 164 586 l 1
 164 -60 l 1
337 -60 m 1
 263 -60 l 1
 263 472 l 1
 637 472 l 1
 637 -60 l 1
 563 -60 l 1
 563 398 l 1
 337 398 l 1
 337 -60 l 1
EndSplineSet
EndChar

StartChar: sym00B
Encoding: 72 -1 72
Width: 720
Flags: HW
HStem: 30 74<164 556> 327 126<325.599 394.401>
VStem: 90 74<104 570> 297 126<355.599 424.401> 556 74<104 570>
CounterMasks: 1 38
LayerCount: 2
Fore
SplineSet
90 570 m 1
 164 570 l 1
 164 104 l 1
 556 104 l 1
 556 570 l 1
 630 570 l 1
 630 30 l 1
 90 30 l 1
 90 570 l 1
360 453 m 0
 378 453 423 408 423 390 c 0
 423 372 378 327 360 327 c 0
 342 327 297 372 297 390 c 0
 297 408 342 453 360 453 c 0
EndSplineSet
EndChar

StartChar: sym00C
Encoding: 73 -1 73
Width: 720
Flags: HW
HStem: 147 126<325.599 394.401> 496 74<164 556>
VStem: 90 74<30 496> 297 126<175.599 244.401> 556 74<30 496>
CounterMasks: 1 38
LayerCount: 2
Fore
SplineSet
164 30 m 1
 90 30 l 1
 90 570 l 1
 630 570 l 1
 630 30 l 1
 556 30 l 1
 556 496 l 1
 164 496 l 1
 164 30 l 1
360 273 m 0
 378 273 423 228 423 210 c 0
 423 192 378 147 360 147 c 0
 342 147 297 192 297 210 c 0
 297 228 342 273 360 273 c 0
EndSplineSet
EndChar

StartChar: sym00D
Encoding: 74 -1 74
Width: 720
Flags: HW
HStem: 30 74<164 556> 353 74<233 323 397 487>
VStem: 90 74<104 570> 323 74<263 353 427 517> 556 74<104 570>
CounterMasks: 1 38
LayerCount: 2
Fore
SplineSet
90 570 m 1
 164 570 l 1
 164 104 l 1
 556 104 l 1
 556 570 l 1
 630 570 l 1
 630 30 l 1
 90 30 l 1
 90 570 l 1
323 517 m 1
 397 517 l 1
 397 427 l 1
 487 427 l 1
 487 353 l 1
 397 353 l 1
 397 263 l 1
 323 263 l 1
 323 353 l 1
 233 353 l 1
 233 427 l 1
 323 427 l 1
 323 517 l 1
EndSplineSet
EndChar

StartChar: sym00E
Encoding: 75 -1 75
Width: 720
Flags: HW
HStem: 173 74<233 323 397 487> 496 74<164 556>
VStem: 90 74<30 496> 323 74<83 173 247 337> 556 74<30 496>
CounterMasks: 1 38
LayerCount: 2
Fore
SplineSet
164 30 m 1
 90 30 l 1
 90 570 l 1
 630 570 l 1
 630 30 l 1
 556 30 l 1
 556 496 l 1
 164 496 l 1
 164 30 l 1
323 337 m 1
 397 337 l 1
 397 247 l 1
 487 247 l 1
 487 173 l 1
 397 173 l 1
 397 83 l 1
 323 83 l 1
 323 173 l 1
 233 173 l 1
 233 247 l 1
 323 247 l 1
 323 337 l 1
EndSplineSet
EndChar

StartChar: uni27D3
Encoding: 76 10195 76
Width: 720
Flags: HW
HStem: 30 74<90 556> 237 126<325.599 394.401>
VStem: 297 126<265.599 334.401> 556 74<104 570>
LayerCount: 2
Fore
SplineSet
90 30 m 1
 90 104 l 1
 556 104 l 1
 556 570 l 1
 630 570 l 1
 630 30 l 1
 90 30 l 1
360 363 m 0
 378 363 423 318 423 300 c 0
 423 282 378 237 360 237 c 0
 342 237 297 282 297 300 c 0
 297 318 342 363 360 363 c 0
EndSplineSet
EndChar

StartChar: uni27D4
Encoding: 77 10196 77
Width: 720
Flags: HW
HStem: 237 126<325.599 394.401> 496 74<164 630>
VStem: 90 74<30 496> 297 126<265.599 334.401>
LayerCount: 2
Fore
SplineSet
630 570 m 1
 630 496 l 1
 164 496 l 1
 164 30 l 1
 90 30 l 1
 90 570 l 1
 630 570 l 1
360 363 m 0
 378 363 423 318 423 300 c 0
 423 282 378 237 360 237 c 0
 342 237 297 282 297 300 c 0
 297 318 342 363 360 363 c 0
EndSplineSet
EndChar

StartChar: uni25B9
Encoding: 78 9657 78
Width: 651
Flags: HW
VStem: 90 74<156 444>
LayerCount: 2
Fore
SplineSet
561 300 m 1
 90 28 l 1
 90 572 l 1
 561 300 l 1
413 300 m 1
 164 444 l 1
 164 156 l 1
 413 300 l 1
EndSplineSet
EndChar

StartChar: uni25B5
Encoding: 79 9653 79
Width: 724
Flags: HW
HStem: 64 74<218 506>
LayerCount: 2
Fore
SplineSet
362 536 m 1
 634 64 l 1
 90 64 l 1
 362 536 l 1
362 388 m 1
 218 138 l 1
 506 138 l 1
 362 388 l 1
EndSplineSet
EndChar

StartChar: uni25C3
Encoding: 80 9667 80
Width: 651
Flags: HW
VStem: 487 74<156 444>
LayerCount: 2
Fore
SplineSet
90 300 m 1
 561 572 l 1
 561 28 l 1
 90 300 l 1
238 300 m 1
 487 156 l 1
 487 444 l 1
 238 300 l 1
EndSplineSet
EndChar

StartChar: uni25BF
Encoding: 81 9663 81
Width: 724
Flags: HW
HStem: 462 74<218 506>
LayerCount: 2
Fore
SplineSet
362 64 m 1
 90 536 l 1
 634 536 l 1
 362 64 l 1
362 212 m 1
 506 462 l 1
 218 462 l 1
 362 212 l 1
EndSplineSet
EndChar

StartChar: uni25B8
Encoding: 82 9656 82
Width: 651
Flags: HW
LayerCount: 2
Fore
SplineSet
561 300 m 1
 90 28 l 1
 90 572 l 1
 561 300 l 1
EndSplineSet
EndChar

StartChar: uni25B4
Encoding: 83 9652 83
Width: 724
Flags: HW
LayerCount: 2
Fore
SplineSet
362 536 m 1
 634 64 l 1
 90 64 l 1
 362 536 l 1
EndSplineSet
EndChar

StartChar: uni25C2
Encoding: 84 9666 84
Width: 651
Flags: HW
LayerCount: 2
Fore
SplineSet
90 300 m 1
 561 572 l 1
 561 28 l 1
 90 300 l 1
EndSplineSet
EndChar

StartChar: uni25BE
Encoding: 85 9662 85
Width: 724
Flags: HW
LayerCount: 2
Fore
SplineSet
362 64 m 1
 90 536 l 1
 634 536 l 1
 362 64 l 1
EndSplineSet
EndChar

StartChar: uni25B7
Encoding: 86 9655 86
Width: 854
Flags: HW
VStem: 90 74<39 561>
LayerCount: 2
Fore
SplineSet
764 300 m 1
 90 -89 l 1
 90 689 l 1
 764 300 l 1
616 300 m 1
 164 561 l 1
 164 39 l 1
 616 300 l 1
EndSplineSet
EndChar

StartChar: uni25B3
Encoding: 87 9651 87
Width: 958
Flags: HW
HStem: -37 74<218 740>
LayerCount: 2
Fore
SplineSet
479 637 m 1
 868 -37 l 1
 90 -37 l 1
 479 637 l 1
479 489 m 1
 218 37 l 1
 740 37 l 1
 479 489 l 1
EndSplineSet
EndChar

StartChar: uni25C1
Encoding: 88 9665 88
Width: 854
Flags: HW
VStem: 690 74<39 561>
LayerCount: 2
Fore
SplineSet
90 300 m 1
 764 689 l 1
 764 -89 l 1
 90 300 l 1
238 300 m 1
 690 39 l 1
 690 561 l 1
 238 300 l 1
EndSplineSet
EndChar

StartChar: uni25BD
Encoding: 89 9661 89
Width: 958
Flags: HW
HStem: 563 74<218 740>
LayerCount: 2
Fore
SplineSet
479 -37 m 1
 90 637 l 1
 868 637 l 1
 479 -37 l 1
479 111 m 1
 740 563 l 1
 218 563 l 1
 479 111 l 1
EndSplineSet
EndChar

StartChar: uni25B6
Encoding: 90 9654 90
Width: 854
Flags: HW
LayerCount: 2
Fore
SplineSet
764 300 m 1
 90 -89 l 1
 90 689 l 1
 764 300 l 1
EndSplineSet
EndChar

StartChar: uni25B2
Encoding: 91 9650 91
Width: 958
Flags: HW
LayerCount: 2
Fore
SplineSet
479 637 m 1
 868 -37 l 1
 90 -37 l 1
 479 637 l 1
EndSplineSet
EndChar

StartChar: uni25C0
Encoding: 92 9664 92
Width: 854
Flags: HW
LayerCount: 2
Fore
SplineSet
90 300 m 1
 764 689 l 1
 764 -89 l 1
 90 300 l 1
EndSplineSet
EndChar

StartChar: uni25BC
Encoding: 93 9660 93
Width: 958
Flags: HW
LayerCount: 2
Fore
SplineSet
479 -37 m 1
 90 637 l 1
 868 637 l 1
 479 -37 l 1
EndSplineSet
EndChar

StartChar: sym00F
Encoding: 94 -1 94
Width: 1243
Flags: HW
HStem: -161 74<218 1025> 741 20G<610.46 633.518>
LayerCount: 2
Fore
SplineSet
622 761 m 1
 1153 -161 l 1
 90 -161 l 1
 622 761 l 1
622 613 m 1
 218 -87 l 1
 1025 -87 l 1
 622 613 l 1
EndSplineSet
EndChar

StartChar: sym010
Encoding: 95 -1 95
Width: 1243
Flags: HW
HStem: 687 74<218 1025>
LayerCount: 2
Fore
SplineSet
622 -161 m 1
 90 761 l 1
 1153 761 l 1
 622 -161 l 1
622 -13 m 1
 1025 687 l 1
 218 687 l 1
 622 -13 l 1
EndSplineSet
EndChar

StartChar: openbullet
Encoding: 96 9702 96
Width: 564
Flags: HW
HStem: 108 74<214.682 349.318> 418 74<214.682 349.318>
VStem: 90 74<232.682 367.318> 400 74<232.682 367.318>
LayerCount: 2
Fore
SplineSet
282 492 m 0
 389 492 474 407 474 300 c 0
 474 193 389 108 282 108 c 0
 175 108 90 193 90 300 c 0
 90 407 175 492 282 492 c 0
282 182 m 0
 347 182 400 235 400 300 c 0
 400 365 347 418 282 418 c 0
 217 418 164 365 164 300 c 0
 164 235 217 182 282 182 c 0
EndSplineSet
EndChar

StartChar: bullet
Encoding: 97 8226 97
Width: 564
Flags: HW
HStem: 108 384<194.168 369.832>
VStem: 90 384<212.168 387.832>
LayerCount: 2
Fore
SplineSet
282 492 m 0
 389 492 474 407 474 300 c 0
 474 193 389 108 282 108 c 0
 175 108 90 193 90 300 c 0
 90 407 175 492 282 492 c 0
EndSplineSet
EndChar

StartChar: circle
Encoding: 98 9675 98
Width: 780
Flags: HW
HStem: 0 74<295.48 484.52> 526 74<295.48 484.52>
VStem: 90 74<205.48 394.52> 616 74<205.48 394.52>
LayerCount: 2
Fore
SplineSet
390 600 m 0
 555 600 690 465 690 300 c 0
 690 135 555 0 390 0 c 0
 225 0 90 135 90 300 c 0
 90 465 225 600 390 600 c 0
390 74 m 0
 515 74 616 175 616 300 c 0
 616 425 515 526 390 526 c 0
 265 526 164 425 164 300 c 0
 164 175 265 74 390 74 c 0
EndSplineSet
EndChar

StartChar: uni25CF
Encoding: 99 9679 99
Width: 780
Flags: HW
HStem: 0 600<280.28 499.72>
VStem: 90 600<190.28 409.72>
LayerCount: 2
Fore
SplineSet
390 600 m 0
 555 600 690 465 690 300 c 0
 690 135 555 0 390 0 c 0
 225 0 90 135 90 300 c 0
 90 465 225 600 390 600 c 0
EndSplineSet
EndChar

StartChar: uni2296
Encoding: 100 8854 100
Width: 780
Flags: HW
HStem: 0 74<293.826 486.174> 263 74<167 613> 526 74<293.826 486.174>
VStem: 90 77<200.208 263 337 399.792> 613 77<200.208 263 337 399.792>
CounterMasks: 1 e0
LayerCount: 2
Fore
SplineSet
613 337 m 1
 595 447 499 526 390 526 c 0
 281 526 185 447 167 337 c 1
 613 337 l 1
167 263 m 1
 185 153 281 74 390 74 c 0
 499 74 595 153 613 263 c 1
 167 263 l 1
390 600 m 0
 555 600 690 465 690 300 c 0
 690 135 555 0 390 0 c 0
 225 0 90 135 90 300 c 0
 90 465 225 600 390 600 c 0
EndSplineSet
EndChar

StartChar: uni29B6
Encoding: 101 10678 101
Width: 780
Flags: HW
HStem: 0 77<290.208 353 427 489.792> 523 77<290.208 353 427 489.792>
VStem: 90 74<203.826 396.174> 353 74<77 523> 616 74<203.826 396.174>
CounterMasks: 1 38
LayerCount: 2
Fore
SplineSet
353 523 m 1
 243 505 164 409 164 300 c 0
 164 191 243 95 353 77 c 1
 353 523 l 1
390 600 m 0
 555 600 690 465 690 300 c 0
 690 135 555 0 390 0 c 0
 225 0 90 135 90 300 c 0
 90 465 225 600 390 600 c 0
427 77 m 1
 537 95 616 191 616 300 c 0
 616 409 537 505 427 523 c 1
 427 77 l 1
EndSplineSet
EndChar

StartChar: uni2298
Encoding: 102 8856 102
Width: 780
Flags: HW
HStem: 0 74<293.924 484.52> 526 74<295.48 486.076>
VStem: 90 74<203.924 394.52> 616 74<205.48 396.076>
LayerCount: 2
Fore
SplineSet
390 526 m 0
 265 526 164 425 164 300 c 0
 164 252 179 206 206 168 c 1
 522 484 l 1
 484 511 438 526 390 526 c 0
390 74 m 0
 515 74 616 175 616 300 c 0
 616 348 601 394 574 432 c 1
 258 116 l 1
 296 89 342 74 390 74 c 0
390 600 m 0
 555 600 690 465 690 300 c 0
 690 135 555 0 390 0 c 0
 225 0 90 135 90 300 c 0
 90 465 225 600 390 600 c 0
EndSplineSet
EndChar

StartChar: uni29B8
Encoding: 103 10680 103
Width: 780
Flags: HW
HStem: 0 74<295.48 486.076> 526 74<293.924 484.52>
VStem: 90 74<205.48 396.076> 616 74<203.924 394.52>
LayerCount: 2
Fore
SplineSet
164 300 m 0
 164 175 265 74 390 74 c 0
 438 74 484 89 522 116 c 1
 206 432 l 1
 179 394 164 348 164 300 c 0
390 600 m 0
 555 600 690 465 690 300 c 0
 690 135 555 0 390 0 c 0
 225 0 90 135 90 300 c 0
 90 465 225 600 390 600 c 0
616 300 m 0
 616 425 515 526 390 526 c 0
 342 526 296 511 258 484 c 1
 574 168 l 1
 601 206 616 252 616 300 c 0
EndSplineSet
EndChar

StartChar: circleplus
Encoding: 104 8853 104
Width: 780
Flags: HW
HStem: 0 77<288.861 353 427 485.954> 263 74<167 353 427 613> 523 77<294.046 353 427 491.139>
VStem: 90 77<204.046 263 337 401.139> 353 74<77 263 337 523> 613 77<198.861 263 337 395.954>
CounterMasks: 1 fc
LayerCount: 2
Fore
SplineSet
353 337 m 1
 353 523 l 1
 340 521 193 493 167 337 c 1
 353 337 l 1
427 337 m 1
 613 337 l 1
 611 350 583 497 427 523 c 1
 427 337 l 1
353 263 m 1
 167 263 l 1
 169 250 197 103 353 77 c 1
 353 263 l 1
427 263 m 1
 427 77 l 1
 440 79 587 107 613 263 c 1
 427 263 l 1
390 600 m 0
 555 600 690 465 690 300 c 0
 690 135 555 0 390 0 c 0
 225 0 90 135 90 300 c 0
 90 465 225 600 390 600 c 0
EndSplineSet
EndChar

StartChar: circlemultiply
Encoding: 105 8855 105
Width: 780
Flags: HW
HStem: 0 74<293.924 486.076> 526 74<293.924 486.076>
VStem: 90 74<203.924 396.076> 616 74<203.924 396.076>
LayerCount: 2
Fore
SplineSet
390 248 m 1
 258 116 l 1
 296 89 342 74 390 74 c 0
 438 74 484 89 522 116 c 1
 390 248 l 1
442 300 m 1
 574 168 l 1
 601 206 616 252 616 300 c 0
 616 348 601 394 574 432 c 1
 442 300 l 1
338 300 m 1
 206 432 l 1
 179 394 164 348 164 300 c 0
 164 252 179 206 206 168 c 1
 338 300 l 1
390 352 m 1
 522 484 l 1
 484 511 438 526 390 526 c 0
 342 526 296 511 258 484 c 1
 390 352 l 1
390 600 m 0
 555 600 690 465 690 300 c 0
 690 135 555 0 390 0 c 0
 225 0 90 135 90 300 c 0
 90 465 225 600 390 600 c 0
EndSplineSet
EndChar

StartChar: uni2299
Encoding: 106 8857 106
Width: 780
Flags: HW
HStem: 0 74<295.48 484.52> 216 168<352.513 427.487> 526 74<295.48 484.52>
VStem: 90 74<205.48 394.52> 306 168<262.513 337.487> 616 74<205.48 394.52>
CounterMasks: 1 fc
LayerCount: 2
Fore
SplineSet
390 600 m 0
 555 600 690 465 690 300 c 0
 690 135 555 0 390 0 c 0
 225 0 90 135 90 300 c 0
 90 465 225 600 390 600 c 0
390 74 m 0
 515 74 616 175 616 300 c 0
 616 425 515 526 390 526 c 0
 265 526 164 425 164 300 c 0
 164 175 265 74 390 74 c 0
474 300 m 0
 474 283 455 265 440 250 c 0
 425 235 407 216 390 216 c 0
 373 216 355 235 340 250 c 0
 325 265 306 283 306 300 c 0
 306 317 325 335 340 350 c 0
 355 365 373 384 390 384 c 0
 407 384 425 365 440 350 c 0
 455 335 474 317 474 300 c 0
EndSplineSet
EndChar

StartChar: uni229A
Encoding: 107 8858 107
Width: 780
Flags: HW
HStem: 0 74<295.48 484.52> 158 74<340.962 439.038> 368 74<340.962 439.038> 526 74<295.48 484.52>
VStem: 90 74<205.48 394.52> 248 74<250.962 349.038> 458 74<250.962 349.038> 616 74<205.48 394.52>
LayerCount: 2
Fore
SplineSet
390 600 m 0
 555 600 690 465 690 300 c 0
 690 135 555 0 390 0 c 0
 225 0 90 135 90 300 c 0
 90 465 225 600 390 600 c 0
390 74 m 0
 515 74 616 175 616 300 c 0
 616 425 515 526 390 526 c 0
 265 526 164 425 164 300 c 0
 164 175 265 74 390 74 c 0
390 442 m 0
 469 442 532 379 532 300 c 0
 532 221 469 158 390 158 c 0
 311 158 248 221 248 300 c 0
 248 379 311 442 390 442 c 0
390 232 m 0
 427 232 458 263 458 300 c 0
 458 337 427 368 390 368 c 0
 353 368 322 337 322 300 c 0
 322 263 353 232 390 232 c 0
EndSplineSet
EndChar

StartChar: uni229B
Encoding: 108 8859 108
Width: 780
Flags: HW
HStem: 0 21G<307.5 472.5>
VStem: 90 74<230.771 369.229> 616 74<230.771 369.229>
LayerCount: 2
Fore
SplineSet
420 351 m 1
 559 450 l 1
 532 481 488 510 435 521 c 1
 420 351 l 1
360 351 m 1
 345 521 l 1
 323 516 265 501 221 450 c 1
 360 351 l 1
332 300 m 1
 176 372 l 1
 168 349 164 325 164 300 c 0
 164 275 168 251 176 228 c 1
 332 300 l 1
360 249 m 1
 221 150 l 1
 248 119 292 90 345 79 c 1
 360 249 l 1
420 249 m 1
 435 79 l 1
 457 84 515 99 559 150 c 1
 420 249 l 1
448 300 m 1
 604 228 l 1
 612 251 616 275 616 300 c 0
 616 325 612 349 604 372 c 1
 448 300 l 1
390 600 m 0
 555 600 690 465 690 300 c 0
 690 135 555 0 390 0 c 0
 225 0 90 135 90 300 c 0
 90 465 225 600 390 600 c 0
EndSplineSet
EndChar

StartChar: uni229D
Encoding: 109 8861 109
Width: 780
Flags: HW
HStem: 0 74<295.48 484.52> 263 74<215 565> 526 74<295.48 484.52>
VStem: 90 74<205.48 394.52> 616 74<205.48 394.52>
CounterMasks: 1 e0
LayerCount: 2
Fore
SplineSet
390 600 m 0
 555 600 690 465 690 300 c 0
 690 135 555 0 390 0 c 0
 225 0 90 135 90 300 c 0
 90 465 225 600 390 600 c 0
390 74 m 0
 515 74 616 175 616 300 c 0
 616 425 515 526 390 526 c 0
 265 526 164 425 164 300 c 0
 164 175 265 74 390 74 c 0
215 263 m 1
 215 337 l 1
 565 337 l 1
 565 263 l 1
 215 263 l 1
EndSplineSet
EndChar

StartChar: uni229C
Encoding: 110 8860 110
Width: 780
Flags: HW
HStem: 0 74<295.48 484.52> 187 74<215 565> 339 74<215 565> 526 74<295.48 484.52>
VStem: 90 74<205.48 394.52> 616 74<205.48 394.52>
LayerCount: 2
Fore
SplineSet
390 600 m 0
 555 600 690 465 690 300 c 0
 690 135 555 0 390 0 c 0
 225 0 90 135 90 300 c 0
 90 465 225 600 390 600 c 0
390 74 m 0
 515 74 616 175 616 300 c 0
 616 425 515 526 390 526 c 0
 265 526 164 425 164 300 c 0
 164 175 265 74 390 74 c 0
215 339 m 1
 215 413 l 1
 565 413 l 1
 565 339 l 1
 215 339 l 1
215 187 m 1
 215 261 l 1
 565 261 l 1
 565 187 l 1
 215 187 l 1
EndSplineSet
EndChar

StartChar: emptyset
Encoding: 111 8709 111
Width: 780
Flags: HW
HStem: 0 74<294.357 484.52> 526 74<295.48 485.643>
VStem: 90 74<204.357 394.52> 616 74<205.48 395.643>
LayerCount: 2
Fore
SplineSet
390 526 m 0
 265 526 164 425 164 300 c 0
 164 252 179 206 206 168 c 1
 522 484 l 1
 484 511 438 526 390 526 c 0
390 74 m 0
 515 74 616 175 616 300 c 0
 616 348 601 394 574 432 c 1
 258 116 l 1
 296 89 342 74 390 74 c 0
90 300 m 0
 90 465 225 600 390 600 c 0
 458 600 522 577 574 536 c 1
 638 600 l 1
 690 548 l 1
 626 484 l 1
 667 432 690 368 690 300 c 0
 690 135 555 0 390 0 c 0
 322 0 258 23 206 64 c 1
 142 0 l 1
 90 52 l 1
 154 116 l 1
 113 168 90 232 90 300 c 0
EndSplineSet
EndChar

StartChar: uni29B0
Encoding: 112 10672 112
Width: 780
Flags: HW
HStem: 0 74<295.48 485.643> 526 74<294.357 484.52>
VStem: 90 74<205.48 395.643> 616 74<204.357 394.52>
LayerCount: 2
Fore
SplineSet
164 300 m 0
 164 175 265 74 390 74 c 0
 438 74 484 89 522 116 c 1
 206 432 l 1
 179 394 164 348 164 300 c 0
616 300 m 0
 616 425 515 526 390 526 c 0
 342 526 296 511 258 484 c 1
 574 168 l 1
 601 206 616 252 616 300 c 0
390 600 m 0
 555 600 690 465 690 300 c 0
 690 232 667 168 626 116 c 1
 690 52 l 1
 638 0 l 1
 574 64 l 1
 522 23 458 0 390 0 c 0
 225 0 90 135 90 300 c 0
 90 368 113 432 154 484 c 1
 90 548 l 1
 142 600 l 1
 206 536 l 1
 258 577 322 600 390 600 c 0
EndSplineSet
EndChar

StartChar: uni25EF
Encoding: 113 9711 113
Width: 1044
Flags: HW
HStem: -132 74<401.746 642.254> 658 74<401.746 642.254>
VStem: 90 74<179.746 420.254> 880 74<179.746 420.254>
LayerCount: 2
Fore
SplineSet
522 732 m 0
 759 732 954 537 954 300 c 0
 954 63 759 -132 522 -132 c 0
 285 -132 90 63 90 300 c 0
 90 537 285 732 522 732 c 0
522 -58 m 0
 719 -58 880 103 880 300 c 0
 880 497 719 658 522 658 c 0
 325 658 164 497 164 300 c 0
 164 103 325 -58 522 -58 c 0
EndSplineSet
EndChar

StartChar: uni2B24
Encoding: 114 11044 114
Width: 1044
Flags: HW
HStem: -132 864<394.126 649.874>
VStem: 90 864<172.126 427.874>
LayerCount: 2
Fore
SplineSet
522 732 m 0
 759 732 954 537 954 300 c 0
 954 63 759 -132 522 -132 c 0
 285 -132 90 63 90 300 c 0
 90 537 285 732 522 732 c 0
EndSplineSet
EndChar

StartChar: uni25AB
Encoding: 115 9643 115
Width: 519
Flags: HW
HStem: 130 74<164 355> 396 74<164 355>
VStem: 90 74<204 396> 355 74<204 396>
LayerCount: 2
Fore
SplineSet
429 470 m 1
 429 130 l 1
 90 130 l 1
 90 470 l 1
 429 470 l 1
355 396 m 1
 164 396 l 1
 164 204 l 1
 355 204 l 1
 355 396 l 1
EndSplineSet
EndChar

StartChar: uni25AA
Encoding: 116 9642 116
Width: 519
Flags: HW
HStem: 130 340<90 429>
VStem: 90 339<130 470>
LayerCount: 2
Fore
SplineSet
429 470 m 1
 429 130 l 1
 90 130 l 1
 90 470 l 1
 429 470 l 1
EndSplineSet
EndChar

StartChar: uni25A1
Encoding: 117 9633 117
Width: 710
Flags: HW
HStem: 35 74<164 546> 491 74<164 546>
VStem: 90 74<109 491> 546 74<109 491>
LayerCount: 2
Fore
SplineSet
620 565 m 1
 620 35 l 1
 90 35 l 1
 90 565 l 1
 620 565 l 1
546 491 m 1
 164 491 l 1
 164 109 l 1
 546 109 l 1
 546 491 l 1
EndSplineSet
EndChar

StartChar: uni25A0
Encoding: 118 9632 118
Width: 710
Flags: HW
HStem: 35 530<90 620>
VStem: 90 530<35 565>
LayerCount: 2
Fore
SplineSet
620 565 m 1
 620 35 l 1
 90 35 l 1
 90 565 l 1
 620 565 l 1
EndSplineSet
EndChar

StartChar: uni229F
Encoding: 119 8863 119
Width: 710
Flags: HW
HStem: 35 74<164 546> 263 74<164 546> 491 74<164 546>
VStem: 90 74<109 263 337 491> 546 74<109 263 337 491>
CounterMasks: 1 e0
LayerCount: 2
Fore
SplineSet
546 263 m 1
 164 263 l 1
 164 109 l 1
 546 109 l 1
 546 263 l 1
620 565 m 1
 620 35 l 1
 90 35 l 1
 90 565 l 1
 620 565 l 1
546 491 m 1
 164 491 l 1
 164 337 l 1
 546 337 l 1
 546 491 l 1
EndSplineSet
EndChar

StartChar: uni25EB
Encoding: 120 9707 120
Width: 710
Flags: HW
HStem: 35 74<164 318 392 546> 491 74<164 318 392 546>
VStem: 90 74<109 491> 318 74<109 491> 546 74<109 491>
CounterMasks: 1 38
LayerCount: 2
Fore
SplineSet
318 109 m 1
 318 491 l 1
 164 491 l 1
 164 109 l 1
 318 109 l 1
392 109 m 1
 546 109 l 1
 546 491 l 1
 392 491 l 1
 392 109 l 1
620 565 m 1
 620 35 l 1
 90 35 l 1
 90 565 l 1
 620 565 l 1
EndSplineSet
EndChar

StartChar: uni29C4
Encoding: 121 10692 121
Width: 710
Flags: HW
HStem: 35 74<216 546> 491 74<164 494>
VStem: 90 74<161 491> 546 74<109 439>
LayerCount: 2
Fore
SplineSet
164 161 m 1
 494 491 l 1
 164 491 l 1
 164 161 l 1
546 439 m 1
 216 109 l 1
 546 109 l 1
 546 439 l 1
620 565 m 1
 620 35 l 1
 90 35 l 1
 90 565 l 1
 620 565 l 1
EndSplineSet
EndChar

StartChar: uni29C5
Encoding: 122 10693 122
Width: 710
Flags: HW
HStem: 35 74<164 494> 491 74<216 546>
VStem: 90 74<109 439> 546 74<161 491>
LayerCount: 2
Fore
SplineSet
494 109 m 1
 164 439 l 1
 164 109 l 1
 494 109 l 1
546 161 m 1
 546 491 l 1
 216 491 l 1
 546 161 l 1
620 565 m 1
 620 35 l 1
 90 35 l 1
 90 565 l 1
 620 565 l 1
EndSplineSet
EndChar

StartChar: uni229E
Encoding: 123 8862 123
Width: 710
Flags: HW
HStem: 35 74<164 318 392 546> 263 74<164 318 392 546> 491 74<164 318 392 546>
VStem: 90 74<109 263 337 491> 318 74<109 263 337 491> 546 74<109 263 337 491>
CounterMasks: 1 fc
LayerCount: 2
Fore
SplineSet
318 263 m 1
 164 263 l 1
 164 109 l 1
 318 109 l 1
 318 263 l 1
392 263 m 1
 392 109 l 1
 546 109 l 1
 546 263 l 1
 392 263 l 1
318 337 m 1
 318 491 l 1
 164 491 l 1
 164 337 l 1
 318 337 l 1
392 337 m 1
 546 337 l 1
 546 491 l 1
 392 491 l 1
 392 337 l 1
620 565 m 1
 620 35 l 1
 90 35 l 1
 90 565 l 1
 620 565 l 1
EndSplineSet
EndChar

StartChar: uni22A0
Encoding: 124 8864 124
Width: 710
Flags: HW
HStem: 35 74<216 494> 491 74<216 494>
VStem: 90 74<161 439> 546 74<161 439>
LayerCount: 2
Fore
SplineSet
355 248 m 1
 216 109 l 1
 494 109 l 1
 355 248 l 1
407 300 m 1
 546 161 l 1
 546 439 l 1
 407 300 l 1
303 300 m 1
 164 439 l 1
 164 161 l 1
 303 300 l 1
355 352 m 1
 494 491 l 1
 216 491 l 1
 355 352 l 1
620 565 m 1
 620 35 l 1
 90 35 l 1
 90 565 l 1
 620 565 l 1
EndSplineSet
EndChar

StartChar: uni22A1
Encoding: 125 8865 125
Width: 710
Flags: HW
HStem: 35 74<164 546> 216 168<317.513 393.313> 491 74<164 546>
VStem: 90 74<109 491> 271 168<262.513 337.487> 546 74<109 491>
CounterMasks: 1 fc
LayerCount: 2
Fore
SplineSet
620 565 m 1
 620 35 l 1
 90 35 l 1
 90 565 l 1
 620 565 l 1
546 491 m 1
 164 491 l 1
 164 109 l 1
 546 109 l 1
 546 491 l 1
439 300 m 0
 439 283 421 265 406 250 c 0
 391 235 372 216 355 216 c 0
 338 216 320 235 305 250 c 0
 290 265 271 283 271 300 c 0
 271 317 290 335 305 350 c 0
 320 365 338 384 355 384 c 0
 372 384 391 365 406 350 c 0
 421 335 439 317 439 300 c 0
EndSplineSet
EndChar

StartChar: uni29C8
Encoding: 126 10696 126
Width: 710
Flags: HW
HStem: 35 74<164 546> 179 59<294 417> 362 59<294 417> 491 74<164 546>
VStem: 90 74<109 491> 234 60<238 362> 417 59<238 362> 546 74<109 491>
LayerCount: 2
Fore
SplineSet
620 565 m 1
 620 35 l 1
 90 35 l 1
 90 565 l 1
 620 565 l 1
546 491 m 1
 164 491 l 1
 164 109 l 1
 546 109 l 1
 546 491 l 1
476 421 m 1
 476 179 l 1
 234 179 l 1
 234 421 l 1
 476 421 l 1
417 362 m 1
 294 362 l 1
 294 238 l 1
 417 238 l 1
 417 362 l 1
EndSplineSet
EndChar

StartChar: uni2B1C
Encoding: 127 11036 127
Width: 944
Flags: HW
HStem: -82 74<164 780> 608 74<164 780>
VStem: 90 74<-8 608> 780 74<-8 608>
LayerCount: 2
Fore
SplineSet
854 682 m 1
 854 -82 l 1
 90 -82 l 1
 90 682 l 1
 854 682 l 1
780 608 m 1
 164 608 l 1
 164 -8 l 1
 780 -8 l 1
 780 608 l 1
EndSplineSet
EndChar

StartChar: uni2B1B
Encoding: 128 11035 128
Width: 944
Flags: HW
HStem: -82 764<90 854>
VStem: 90 764<-82 682>
LayerCount: 2
Fore
SplineSet
854 682 m 1
 854 -82 l 1
 90 -82 l 1
 90 682 l 1
 854 682 l 1
EndSplineSet
EndChar

StartChar: uni22C4
Encoding: 129 8900 129
Width: 660
Flags: HW
HStem: 535 20G<310 350>
LayerCount: 2
Fore
SplineSet
330 555 m 1
 585 300 l 1
 330 45 l 1
 75 300 l 1
 330 555 l 1
330 451 m 1
 179 300 l 1
 330 149 l 1
 481 300 l 1
 330 451 l 1
EndSplineSet
EndChar

StartChar: uni2B29
Encoding: 130 11049 130
Width: 660
Flags: HW
HStem: 535 20G<310 350>
LayerCount: 2
Fore
SplineSet
330 555 m 1
 585 300 l 1
 330 45 l 1
 75 300 l 1
 330 555 l 1
EndSplineSet
EndChar

StartChar: uni25C7
Encoding: 131 9671 131
Width: 930
Flags: HW
LayerCount: 2
Fore
SplineSet
465 690 m 1
 855 300 l 1
 465 -90 l 1
 75 300 l 1
 465 690 l 1
465 586 m 1
 179 300 l 1
 465 14 l 1
 751 300 l 1
 465 586 l 1
EndSplineSet
EndChar

StartChar: uni25C6
Encoding: 132 9670 132
Width: 930
Flags: HW
LayerCount: 2
Fore
SplineSet
465 690 m 1
 855 300 l 1
 465 -90 l 1
 75 300 l 1
 465 690 l 1
EndSplineSet
EndChar

StartChar: sym011
Encoding: 133 -1 133
Width: 930
Flags: HW
HStem: 263 74<216 714>
LayerCount: 2
Fore
SplineSet
714 263 m 1
 216 263 l 1
 465 14 l 1
 714 263 l 1
714 337 m 1
 465 586 l 1
 216 337 l 1
 714 337 l 1
465 690 m 1
 855 300 l 1
 465 -90 l 1
 75 300 l 1
 465 690 l 1
EndSplineSet
EndChar

StartChar: sym012
Encoding: 134 -1 134
Width: 930
Flags: HW
VStem: 428 74<51 549>
LayerCount: 2
Fore
SplineSet
428 51 m 1
 428 549 l 1
 179 300 l 1
 428 51 l 1
502 549 m 1
 502 51 l 1
 751 300 l 1
 502 549 l 1
465 690 m 1
 855 300 l 1
 465 -90 l 1
 75 300 l 1
 465 690 l 1
EndSplineSet
EndChar

StartChar: sym013
Encoding: 135 -1 135
Width: 930
Flags: HW
LayerCount: 2
Fore
SplineSet
634 417 m 1
 348 131 l 1
 465 14 l 1
 751 300 l 1
 634 417 l 1
465 690 m 1
 855 300 l 1
 465 -90 l 1
 75 300 l 1
 465 690 l 1
465 586 m 1
 179 300 l 1
 296 183 l 1
 582 469 l 1
 465 586 l 1
EndSplineSet
EndChar

StartChar: sym014
Encoding: 136 -1 136
Width: 930
Flags: HW
LayerCount: 2
Fore
SplineSet
582 131 m 1
 296 417 l 1
 179 300 l 1
 465 14 l 1
 582 131 l 1
634 183 m 1
 751 300 l 1
 465 586 l 1
 348 469 l 1
 634 183 l 1
465 690 m 1
 855 300 l 1
 465 -90 l 1
 75 300 l 1
 465 690 l 1
EndSplineSet
EndChar

StartChar: sym015
Encoding: 137 -1 137
Width: 930
Flags: HW
HStem: 263 74<216 428 502 714>
VStem: 428 74<51 263 337 549>
LayerCount: 2
Fore
SplineSet
428 263 m 1
 216 263 l 1
 428 51 l 1
 428 263 l 1
502 263 m 1
 502 51 l 1
 714 263 l 1
 502 263 l 1
428 337 m 1
 428 549 l 1
 216 337 l 1
 428 337 l 1
502 337 m 1
 714 337 l 1
 502 549 l 1
 502 337 l 1
465 690 m 1
 855 300 l 1
 465 -90 l 1
 75 300 l 1
 465 690 l 1
EndSplineSet
EndChar

StartChar: sym016
Encoding: 138 -1 138
Width: 930
Flags: HW
LayerCount: 2
Fore
SplineSet
465 248 m 1
 348 131 l 1
 465 14 l 1
 582 131 l 1
 465 248 l 1
517 300 m 1
 634 183 l 1
 751 300 l 1
 634 417 l 1
 517 300 l 1
413 300 m 1
 296 417 l 1
 179 300 l 1
 296 183 l 1
 413 300 l 1
465 352 m 1
 582 469 l 1
 465 586 l 1
 348 469 l 1
 465 352 l 1
465 690 m 1
 855 300 l 1
 465 -90 l 1
 75 300 l 1
 465 690 l 1
EndSplineSet
EndChar

StartChar: uni27D0
Encoding: 139 10192 139
Width: 930
Flags: HW
HStem: 216 168<427.513 502.487>
VStem: 381 168<262.513 337.487>
LayerCount: 2
Fore
SplineSet
465 690 m 1
 855 300 l 1
 465 -90 l 1
 75 300 l 1
 465 690 l 1
465 586 m 1
 179 300 l 1
 465 14 l 1
 751 300 l 1
 465 586 l 1
549 300 m 0
 549 283 530 265 515 250 c 0
 500 235 482 216 465 216 c 0
 448 216 430 235 415 250 c 0
 400 265 381 283 381 300 c 0
 381 317 400 335 415 350 c 0
 430 365 448 384 465 384 c 0
 482 384 500 365 515 350 c 0
 530 335 549 317 549 300 c 0
EndSplineSet
EndChar

StartChar: sym017
Encoding: 140 -1 140
Width: 930
Flags: HW
LayerCount: 2
Fore
SplineSet
465 690 m 1
 855 300 l 1
 465 -90 l 1
 75 300 l 1
 465 690 l 1
465 586 m 1
 179 300 l 1
 465 14 l 1
 751 300 l 1
 465 586 l 1
465 477 m 1
 642 300 l 1
 465 123 l 1
 288 300 l 1
 465 477 l 1
465 393 m 1
 372 300 l 1
 465 207 l 1
 558 300 l 1
 465 393 l 1
EndSplineSet
EndChar

StartChar: uni2B2B
Encoding: 141 11051 141
Width: 580
Flags: HW
LayerCount: 2
Fore
SplineSet
90 300 m 1
 290 620 l 1
 490 300 l 1
 290 -20 l 1
 90 300 l 1
177 300 m 1
 290 120 l 1
 403 300 l 1
 290 480 l 1
 177 300 l 1
EndSplineSet
EndChar

StartChar: uni2B2A
Encoding: 142 11050 142
Width: 580
Flags: HW
LayerCount: 2
Fore
SplineSet
90 300 m 1
 290 620 l 1
 490 300 l 1
 290 -20 l 1
 90 300 l 1
EndSplineSet
EndChar

StartChar: lozenge
Encoding: 143 9674 143
Width: 710
Flags: HW
LayerCount: 2
Fore
SplineSet
90 300 m 1
 355 724 l 1
 620 300 l 1
 355 -124 l 1
 90 300 l 1
177 300 m 1
 355 15 l 1
 533 300 l 1
 355 585 l 1
 177 300 l 1
EndSplineSet
EndChar

StartChar: uni29EB
Encoding: 144 10731 144
Width: 710
Flags: HW
LayerCount: 2
Fore
SplineSet
90 300 m 1
 355 724 l 1
 620 300 l 1
 355 -124 l 1
 90 300 l 1
EndSplineSet
EndChar

StartChar: uni27E0
Encoding: 145 10208 145
Width: 710
Flags: HW
HStem: 263 74<200 510>
LayerCount: 2
Fore
SplineSet
510 263 m 1
 200 263 l 1
 355 15 l 1
 510 263 l 1
200 337 m 1
 510 337 l 1
 355 585 l 1
 200 337 l 1
90 300 m 1
 355 724 l 1
 620 300 l 1
 355 -124 l 1
 90 300 l 1
EndSplineSet
EndChar

StartChar: uni2B52
Encoding: 146 11090 146
Width: 780
Flags: HW
HStem: -3 21G<198.061 220.696 559.304 581.939> 320 58<241 311 469 539>
LayerCount: 2
Fore
SplineSet
390 606 m 1
 469 378 l 1
 711 374 l 1
 518 228 l 1
 588 -3 l 1
 390 135 l 1
 192 -3 l 1
 262 228 l 1
 69 374 l 1
 311 378 l 1
 390 606 l 1
390 426 m 1
 353 320 l 1
 241 318 l 1
 330 250 l 1
 298 143 l 1
 390 207 l 1
 482 143 l 1
 450 250 l 1
 539 318 l 1
 427 320 l 1
 390 426 l 1
EndSplineSet
EndChar

StartChar: uni22C6
Encoding: 147 8902 147
Width: 660
Flags: HW
HStem: 532 20G<323.085 336.915>
LayerCount: 2
Fore
SplineSet
330 552 m 1
 395 364 l 1
 593 360 l 1
 435 241 l 1
 493 51 l 1
 330 164 l 1
 167 51 l 1
 225 241 l 1
 67 360 l 1
 265 364 l 1
 330 552 l 1
EndSplineSet
EndChar

StartChar: uni2B50
Encoding: 148 11088 148
Width: 930
Flags: HW
HStem: 323 73<288 368 562 642>
LayerCount: 2
Fore
SplineSet
465 675 m 1
 562 396 l 1
 857 390 l 1
 622 212 l 1
 707 -71 l 1
 465 98 l 1
 223 -71 l 1
 308 212 l 1
 73 390 l 1
 368 396 l 1
 465 675 l 1
465 449 m 1
 421 323 l 1
 288 320 l 1
 394 239 l 1
 355 112 l 1
 465 188 l 1
 575 112 l 1
 536 239 l 1
 642 320 l 1
 509 323 l 1
 465 449 l 1
EndSplineSet
EndChar

StartChar: uni2B51
Encoding: 149 11089 149
Width: 930
Flags: HW
LayerCount: 2
Fore
SplineSet
465 675 m 1
 562 396 l 1
 857 390 l 1
 622 212 l 1
 707 -71 l 1
 465 98 l 1
 223 -71 l 1
 308 212 l 1
 73 390 l 1
 368 396 l 1
 465 675 l 1
EndSplineSet
EndChar

StartChar: uni2606
Encoding: 150 9734 150
Width: 1260
Flags: HW
HStem: -219 21G<297.076 319.729 940.271 962.975> 356 70<296 442.375 817.625 964> 361 73<296 494 766 964>
LayerCount: 2
Fore
SplineSet
630 825 m 1xa0
 766 434 l 1xa0
 1179 426 l 1
 850 176 l 1
 969 -219 l 1
 630 17 l 1
 291 -219 l 1
 411 176 l 1
 81 426 l 1xc0
 494 434 l 1
 630 825 l 1xa0
630 599 m 1
 547 361 l 1xa0
 296 356 l 1
 496 204 l 1
 423 -37 l 1
 630 107 l 1
 837 -37 l 1
 764 204 l 1
 964 356 l 1xc0
 713 361 l 1
 630 599 l 1
EndSplineSet
EndChar

StartChar: uni2605
Encoding: 151 9733 151
Width: 1260
Flags: HW
HStem: -219 21G<297.076 319.729 940.271 962.975>
LayerCount: 2
Fore
SplineSet
630 825 m 1
 766 434 l 1
 1179 426 l 1
 850 176 l 1
 969 -219 l 1
 630 17 l 1
 291 -219 l 1
 411 176 l 1
 81 426 l 1
 494 434 l 1
 630 825 l 1
EndSplineSet
EndChar

StartChar: asteriskmath
Encoding: 152 8727 152
Width: 660
Flags: HW
LayerCount: 2
Fore
SplineSet
389 300 m 1
 563 223 l 1
 513 137 l 1
 360 248 l 1
 379 60 l 1
 281 60 l 1
 300 248 l 1
 147 137 l 1
 97 223 l 1
 271 300 l 1
 97 377 l 1
 147 463 l 1
 300 352 l 1
 281 540 l 1
 379 540 l 1
 360 352 l 1
 513 463 l 1
 563 377 l 1
 389 300 l 1
EndSplineSet
EndChar

StartChar: infinity
Encoding: 153 8734 153
Width: 1044
Flags: HW
HStem: 73 74<223.35 353.815 690.185 820.65> 453 74<223.35 353.815 690.185 820.65>
VStem: 90 74<213.865 386.135> 880 74<213.865 386.135>
LayerCount: 2
Fore
SplineSet
572 300 m 1
 628 232 672 147 759 147 c 0
 832 147 880 221 880 300 c 0
 880 379 832 453 759 453 c 0
 672 453 628 368 572 300 c 1
522 354 m 1
 592 433 655 527 759 527 c 0
 873 527 954 420 954 300 c 0
 954 180 873 73 759 73 c 0
 655 73 592 167 522 246 c 1
 452 167 389 73 285 73 c 0
 171 73 90 180 90 300 c 0
 90 420 171 527 285 527 c 0
 389 527 452 433 522 354 c 1
472 300 m 1
 416 368 372 453 285 453 c 0
 212 453 164 379 164 300 c 0
 164 221 212 147 285 147 c 0
 372 147 416 232 472 300 c 1
EndSplineSet
EndChar

StartChar: proportional
Encoding: 154 8733 154
Width: 948
Flags: HW
HStem: 73 74<225.845 357.131 699.047 858> 453 74<225.845 357.131 699.047 858>
VStem: 90 74<213.436 386.564>
LayerCount: 2
Fore
SplineSet
473 300 m 1
 418 367 375 453 289 453 c 0
 214 453 164 380 164 300 c 0
 164 220 214 147 289 147 c 0
 375 147 418 233 473 300 c 1
858 527 m 1
 858 453 l 1
 773 453 l 2
 683 453 632 369 572 300 c 1
 632 231 683 147 773 147 c 2
 858 147 l 1
 858 73 l 1
 773 73 l 2
 666 73 596 166 522 246 c 1
 453 167 393 73 289 73 c 0
 173 73 90 179 90 300 c 0
 90 421 173 527 289 527 c 0
 393 527 453 433 522 354 c 1
 596 434 666 527 773 527 c 2
 858 527 l 1
EndSplineSet
EndChar

StartChar: sym018
Encoding: 155 -1 155
Width: 948
Flags: HW
HStem: 73 74<90 248.953 591.462 722.575> 453 74<90 248.953 591.462 722.575>
VStem: 784 74<213.436 386.564>
LayerCount: 2
Fore
SplineSet
475 300 m 1
 530 233 573 147 660 147 c 0
 734 147 784 220 784 300 c 0
 784 380 734 453 660 453 c 0
 573 453 530 367 475 300 c 1
90 73 m 1
 90 147 l 1
 175 147 l 2
 265 147 316 231 376 300 c 1
 316 369 265 453 175 453 c 2
 90 453 l 1
 90 527 l 1
 175 527 l 2
 282 527 352 434 426 354 c 1
 495 433 556 527 660 527 c 0
 775 527 858 421 858 300 c 0
 858 179 775 73 660 73 c 0
 556 73 495 167 426 246 c 1
 352 166 282 73 175 73 c 2
 90 73 l 1
EndSplineSet
EndChar

StartChar: sym019
Encoding: 156 -1 156
Width: 852
Flags: HW
HStem: 73 74<90 249.375 602.625 762> 453 74<90 249.375 602.625 762>
LayerCount: 2
Fore
SplineSet
90 527 m 1
 175 527 l 2
 283 527 352 434 426 353 c 1
 500 434 569 527 677 527 c 2
 762 527 l 1
 762 453 l 1
 677 453 l 2
 587 453 536 369 476 300 c 1
 536 231 587 147 677 147 c 2
 762 147 l 1
 762 73 l 1
 677 73 l 2
 569 73 500 166 426 247 c 1
 352 166 283 73 175 73 c 2
 90 73 l 1
 90 147 l 1
 175 147 l 2
 265 147 316 231 376 300 c 1
 316 369 265 453 175 453 c 2
 90 453 l 1
 90 527 l 1
EndSplineSet
EndChar

StartChar: uni226C
Encoding: 157 8812 157
Width: 444
Flags: HW
VStem: 90 74<183.669 416.331> 280 74<183.669 416.331>
LayerCount: 2
Fore
SplineSet
222 489 m 1
 186 432 164 368 164 300 c 0
 164 232 186 168 222 111 c 1
 258 168 280 232 280 300 c 0
 280 368 258 432 222 489 c 1
340 -17 m 1
 294 -75 l 1
 268 -55 244 -33 222 -9 c 1
 200 -33 176 -55 150 -75 c 1
 104 -17 l 1
 129 3 154 25 175 49 c 1
 123 123 90 208 90 300 c 0
 90 392 123 477 175 551 c 1
 154 575 129 597 104 617 c 1
 150 675 l 1
 176 655 200 633 222 609 c 1
 244 633 268 655 294 675 c 1
 340 617 l 1
 315 597 290 575 269 551 c 1
 321 477 354 392 354 300 c 0
 354 208 321 123 269 49 c 1
 290 25 315 3 340 -17 c 1
EndSplineSet
EndChar

StartChar: uni22BA
Encoding: 158 8890 158
Width: 560
Flags: HW
HStem: -220 21G<243 317> 472 74<90 243 317 470>
VStem: 243 74<-220 472>
LayerCount: 2
Fore
SplineSet
317 -220 m 1
 243 -220 l 1
 243 472 l 1
 90 472 l 1
 90 546 l 1
 470 546 l 1
 470 472 l 1
 317 472 l 1
 317 -220 l 1
EndSplineSet
EndChar

StartChar: uni2240
Encoding: 159 8768 159
Width: 381
Flags: HW
VStem: 90 74<121.314 236.889> 217 74<363.111 478.686>
LayerCount: 2
Fore
SplineSet
150 523 m 1
 190 570 l 1
 238 529 291 485 291 423 c 0
 291 365 257 315 217 274 c 0
 190 247 164 216 164 177 c 0
 164 135 198 104 230 77 c 1
 190 30 l 1
 142 71 90 115 90 177 c 0
 90 235 124 285 164 326 c 0
 191 353 217 384 217 423 c 0
 217 465 183 496 150 523 c 1
EndSplineSet
EndChar

StartChar: angle
Encoding: 160 8736 160
Width: 720
Flags: HW
HStem: 30 74<174 630>
LayerCount: 2
Fore
SplineSet
630 104 m 1
 630 30 l 1
 96 30 l 1
 74 104 l 1
 495 566 l 1
 549 516 l 1
 174 104 l 1
 630 104 l 1
EndSplineSet
EndChar

StartChar: uni29A3
Encoding: 161 10659 161
Width: 720
Flags: HW
HStem: 30 74<90 546>
LayerCount: 2
Fore
SplineSet
90 104 m 1
 546 104 l 1
 171 516 l 1
 225 566 l 1
 646 104 l 1
 624 30 l 1
 90 30 l 1
 90 104 l 1
EndSplineSet
EndChar

StartChar: uni2221
Encoding: 162 8737 162
Width: 720
Flags: HW
HStem: 30 74<174 411 482.633 630>
VStem: 411 74<104 186.365>
LayerCount: 2
Fore
SplineSet
411 104 m 1
 404 169 376 230 333 279 c 1
 174 104 l 1
 411 104 l 1
630 104 m 1
 630 30 l 1
 96 30 l 1
 74 104 l 1
 495 566 l 1
 549 516 l 1
 384 334 l 1
 442 270 477 190 485 104 c 1
 630 104 l 1
EndSplineSet
EndChar

StartChar: uni299B
Encoding: 163 10651 163
Width: 720
Flags: HW
HStem: 30 74<90 237.367 309 546>
VStem: 235 74<104 186.365>
LayerCount: 2
Fore
SplineSet
387 279 m 1
 344 230 316 169 309 104 c 1
 546 104 l 1
 387 279 l 1
336 334 m 1
 171 516 l 1
 225 566 l 1
 646 104 l 1
 624 30 l 1
 90 30 l 1
 90 104 l 1
 235 104 l 1
 243 190 278 270 336 334 c 1
EndSplineSet
EndChar

StartChar: uni2222
Encoding: 164 8738 164
Width: 720
Flags: HW
VStem: 462 74<201.912 398.088>
LayerCount: 2
Fore
SplineSet
438 197 m 1
 455 229 462 265 462 300 c 0
 462 335 455 371 438 403 c 1
 215 300 l 1
 438 197 l 1
599 559 m 1
 630 492 l 1
 505 434 l 1
 526 392 536 346 536 300 c 0
 536 254 526 208 505 166 c 1
 630 108 l 1
 599 41 l 1
 90 276 l 1
 90 324 l 1
 599 559 l 1
EndSplineSet
EndChar

StartChar: uni29A1
Encoding: 165 10657 165
Width: 720
Flags: HW
HStem: 402 74<261.912 458.088>
LayerCount: 2
Fore
SplineSet
463 378 m 1
 431 395 395 402 360 402 c 0
 325 402 289 395 257 378 c 1
 360 155 l 1
 463 378 l 1
101 539 m 1
 168 570 l 1
 226 445 l 1
 268 466 314 476 360 476 c 0
 406 476 452 466 494 445 c 1
 552 570 l 1
 619 539 l 1
 384 30 l 1
 336 30 l 1
 101 539 l 1
EndSplineSet
EndChar

StartChar: uni29A0
Encoding: 166 10656 166
Width: 720
Flags: HW
VStem: 184 74<201.912 398.088>
LayerCount: 2
Fore
SplineSet
282 403 m 1
 265 371 258 335 258 300 c 0
 258 265 265 229 282 197 c 1
 505 300 l 1
 282 403 l 1
121 41 m 1
 90 108 l 1
 215 166 l 1
 194 208 184 254 184 300 c 0
 184 346 194 392 215 434 c 1
 90 492 l 1
 121 559 l 1
 630 324 l 1
 630 276 l 1
 121 41 l 1
EndSplineSet
EndChar

StartChar: sym01A
Encoding: 167 -1 167
Width: 720
Flags: HW
HStem: 124 74<261.912 458.088>
LayerCount: 2
Fore
SplineSet
257 222 m 1
 289 205 325 198 360 198 c 0
 395 198 431 205 463 222 c 1
 360 445 l 1
 257 222 l 1
619 61 m 1
 552 30 l 1
 494 155 l 1
 452 134 406 124 360 124 c 0
 314 124 268 134 226 155 c 1
 168 30 l 1
 101 61 l 1
 336 570 l 1
 384 570 l 1
 619 61 l 1
EndSplineSet
EndChar

StartChar: uni221F
Encoding: 168 8735 168
Width: 720
Flags: HW
HStem: 30 74<164 630>
VStem: 90 74<104 570>
LayerCount: 2
Fore
SplineSet
90 570 m 1
 164 570 l 1
 164 104 l 1
 630 104 l 1
 630 30 l 1
 90 30 l 1
 90 570 l 1
EndSplineSet
EndChar

StartChar: uni22BE
Encoding: 169 8894 169
Width: 720
Flags: HW
HStem: 30 74<164 370 444 630> 310 74<164 253.409>
VStem: 90 74<104 310 384 570> 370 74<104 193.409>
LayerCount: 2
Fore
SplineSet
370 104 m 1
 370 218 278 310 164 310 c 1
 164 104 l 1
 370 104 l 1
90 570 m 1
 164 570 l 1
 164 384 l 1
 318 384 444 258 444 104 c 1
 630 104 l 1
 630 30 l 1
 90 30 l 1
 90 570 l 1
EndSplineSet
EndChar

StartChar: uni299C
Encoding: 170 10652 170
Width: 720
Flags: HW
HStem: 30 74<164 323 397 630> 263 74<164 323>
VStem: 90 74<104 263 337 570> 323 74<104 263>
LayerCount: 2
Fore
SplineSet
323 263 m 1
 164 263 l 1
 164 104 l 1
 323 104 l 1
 323 263 l 1
90 570 m 1
 164 570 l 1
 164 337 l 1
 397 337 l 1
 397 104 l 1
 630 104 l 1
 630 30 l 1
 90 30 l 1
 90 570 l 1
EndSplineSet
EndChar

StartChar: uni299D
Encoding: 171 10653 171
Width: 720
Flags: HW
HStem: 30 74<164 370 444 630> 141 84<213.341 273.277> 310 74<164 253.409>
VStem: 90 74<104 310 384 570> 202 84<153.723 213.659> 370 74<104 193.409>
LayerCount: 2
Fore
SplineSet
370 104 m 1
 370 218 278 310 164 310 c 1
 164 104 l 1
 370 104 l 1
90 570 m 1
 164 570 l 1
 164 384 l 1
 318 384 444 258 444 104 c 1
 630 104 l 1
 630 30 l 1
 90 30 l 1
 90 570 l 1
244 225 m 0
 256 225 286 196 286 183 c 0
 286 172 255 141 244 141 c 0
 231 141 202 171 202 183 c 0
 202 196 231 225 244 225 c 0
EndSplineSet
EndChar

StartChar: minute
Encoding: 172 8242 172
Width: 254
Flags: HW
VStem: 60 194
LayerCount: 2
Fore
SplineSet
254 603 m 1
 159 67 l 1
 60 67 l 1
 120 603 l 1
 254 603 l 1
EndSplineSet
EndChar

StartChar: uni2035
Encoding: 173 8245 173
Width: 254
Flags: HW
VStem: 0 194
LayerCount: 2
Fore
SplineSet
0 603 m 1
 134 603 l 1
 194 67 l 1
 95 67 l 1
 0 603 l 1
EndSplineSet
EndChar

StartChar: product.small
Encoding: 174 -1 174
Width: 720
Flags: HW
HStem: 30 46<98 146.436 257.564 306 414 462.436 573.564 622> 496 74<253 467> 524 46<92 146.681 573.319 628>
VStem: 151 102<88.0342 495.743> 467 102<88.0342 495.743>
LayerCount: 2
Fore
SplineSet
98 30 m 1xd8
 90 76 l 1
 116 83 151 92 151 107 c 2
 151 493 l 2
 151 508 118 517 92 524 c 1
 90 570 l 1
 630 570 l 1
 628 524 l 1xb8
 602 517 569 508 569 493 c 2
 569 107 l 2
 569 92 604 83 630 76 c 1
 622 30 l 1
 414 30 l 1
 406 76 l 1
 432 83 467 92 467 107 c 2
 467 496 l 1
 253 496 l 1
 253 107 l 2
 253 92 288 83 314 76 c 1
 306 30 l 1
 98 30 l 1xd8
EndSplineSet
EndChar

StartChar: product.sf.small
Encoding: 175 -1 175
Width: 720
Flags: HW
HStem: 471 99<90 155 254 466 565 630>
VStem: 155 99<30 471> 466 99<30 471>
LayerCount: 2
Fore
SplineSet
155 30 m 1
 155 471 l 1
 90 471 l 1
 90 570 l 1
 630 570 l 1
 630 471 l 1
 565 471 l 1
 565 30 l 1
 466 30 l 1
 466 471 l 1
 254 471 l 1
 254 30 l 1
 155 30 l 1
EndSplineSet
EndChar

StartChar: uni2A3F
Encoding: 176 10815 176
Width: 720
Flags: HW
HStem: 30 74<253 467> 30 46<92 146.681 573.319 628> 524 46<98 146.436 257.564 306 414 462.436 573.564 622>
VStem: 151 102<104.257 511.966> 467 102<104.257 511.966>
LayerCount: 2
Fore
SplineSet
98 570 m 1x78
 306 570 l 1
 314 524 l 1
 288 517 253 508 253 493 c 2
 253 104 l 1
 467 104 l 1xb8
 467 493 l 2
 467 508 432 517 406 524 c 1
 414 570 l 1
 622 570 l 1
 630 524 l 1
 604 517 569 508 569 493 c 2
 569 107 l 2
 569 92 602 83 628 76 c 1
 630 30 l 1
 90 30 l 1
 92 76 l 1
 118 83 151 92 151 107 c 2
 151 493 l 2
 151 508 116 517 90 524 c 1
 98 570 l 1x78
EndSplineSet
EndChar

StartChar: uni2A3F.sf
Encoding: 177 -1 177
Width: 720
Flags: HW
HStem: 30 99<90 155 254 466 565 630>
VStem: 155 99<129 570> 466 99<129 570>
LayerCount: 2
Fore
SplineSet
155 570 m 1
 254 570 l 1
 254 129 l 1
 466 129 l 1
 466 570 l 1
 565 570 l 1
 565 129 l 1
 630 129 l 1
 630 30 l 1
 90 30 l 1
 90 129 l 1
 155 129 l 1
 155 570 l 1
EndSplineSet
EndChar

StartChar: integral.small
Encoding: 178 -1 178
Width: 482
Flags: HW
HStem: 0 82<129 179.424> 674 80<297.921 352.484>
VStem: 191 99<88.3712 670.781>
LayerCount: 2
Fore
SplineSet
374 748 m 1
 353 667 l 1
 342 671 331 674 320 674 c 0
 291 674 290 636 290 602 c 2
 290 157 l 2
 290 69 219 0 133 -0 c 0
 132 0 130 0 129 0 c 1
 117 82 l 1
 151 82 l 2
 182 82 191 121 191 157 c 2
 191 602 l 2
 191 685 254 754 334 754 c 0
 336 754 339 754 341 754 c 0
 352 754 364 751 374 748 c 1
EndSplineSet
EndChar

StartChar: uni2713
Encoding: 179 10003 179
Width: 914
Flags: HW
HStem: 0 21G<222.6 369.5> 734 20G<801 823.333>
LayerCount: 2
Fore
SplineSet
90 275 m 1
 175 325 l 1
 283 117 l 1
 396 348 515 581 712 746 c 0
 721 754 782 754 820 754 c 1
 824 730 l 1
 801 719 779 706 759 689 c 0
 546 510 432 248 307 0 c 1
 233 0 l 1
 90 275 l 1
EndSplineSet
EndChar

StartChar: uni21AF
Encoding: 180 8623 180
Width: 614
Flags: HW
HStem: 530 20G<449.246 514.807>
LayerCount: 2
Fore
SplineSet
186 -106 m 1
 100 84 l 1
 168 115 l 1
 202 39 l 1
 349 426 l 1
 150 373 l 1
 378 942 l 1
 482 905 l 1
 296 489 l 1
 524 550 l 1
 279 17 l 1
 346 47 l 1
 377 -20 l 1
 186 -106 l 1
EndSplineSet
EndChar

StartChar: uni2662
Encoding: 181 9826 181
Width: 780
Flags: HW
HStem: 0 21G<345 435> 687 20G<345 435>
LayerCount: 2
Fore
SplineSet
390 0 m 1
 300 126 200 245 90 354 c 1
 200 462 300 581 390 707 c 1
 480 581 580 462 690 354 c 1
 580 245 480 126 390 0 c 1
390 114 m 1
 451 200 518 280 593 354 c 1
 518 427 451 507 390 593 c 1
 329 507 262 427 187 354 c 1
 262 280 329 200 390 114 c 1
EndSplineSet
EndChar

StartChar: diamond
Encoding: 182 9830 182
Width: 780
Flags: HW
HStem: 0 21G<345 435> 687 20G<345 435>
LayerCount: 2
Fore
SplineSet
390 0 m 1
 300 126 200 245 90 354 c 1
 200 462 300 581 390 707 c 1
 480 581 580 462 690 354 c 1
 580 245 480 126 390 0 c 1
EndSplineSet
EndChar

StartChar: uni2661
Encoding: 183 9825 183
Width: 840
Flags: HW
HStem: 0 21G<358.5 481.5> 687 20G<212.5 292 548 627.5>
VStem: 90 660<415.219 614.034>
LayerCount: 2
Fore
SplineSet
420 0 m 1
 297 176 90 312 90 530 c 0
 90 627 165 707 260 707 c 0
 324 707 375 664 420 619 c 1
 465 664 516 707 580 707 c 0
 675 707 750 627 750 530 c 0
 750 312 543 176 420 0 c 1
EndSplineSet
EndChar

StartChar: heart
Encoding: 184 9829 184
Width: 840
Flags: HW
HStem: 0 21G<358.5 481.5> 687 20G<212.5 292 548 627.5>
VStem: 90 660<415.219 614.034>
LayerCount: 2
Fore
SplineSet
420 0 m 1
 297 176 90 312 90 530 c 0
 90 627 165 707 260 707 c 0
 324 707 375 664 420 619 c 1
 465 664 516 707 580 707 c 0
 675 707 750 627 750 530 c 0
 750 312 543 176 420 0 c 1
EndSplineSet
EndChar

StartChar: spade
Encoding: 185 9824 185
Width: 780
Flags: HW
HStem: 0 21G<300 480> 687 20G<345.5 434.5>
VStem: 89 602<195.731 376.681>
LayerCount: 2
Fore
SplineSet
552 117 m 0
 492 117 461 158 450 178 c 1
 480 0 l 1
 300 0 l 1
 330 178 l 1
 299 124 250 117 228 117 c 0
 153 117 89 188 89 284 c 0
 89 464 301 553 390 707 c 1
 479 553 691 464 691 284 c 0
 691 188 627 117 552 117 c 0
EndSplineSet
EndChar

StartChar: club
Encoding: 186 9827 186
Width: 840
Flags: HW
HStem: 0 21G<330 510> 687 20G<374 466>
VStem: 90 660<214.964 376.518> 255 330<459.358 624.518>
LayerCount: 2
Fore
SplineSet
585 459 m 0xd0
 677 459 750 386 750 294 c 0xe0
 750 202 674 129 585 129 c 0
 549 129 514 141 485 163 c 1
 510 0 l 1
 330 0 l 1
 355 163 l 1
 326 141 291 129 255 129 c 0xd0
 166 129 90 202 90 294 c 0xe0
 90 386 163 459 255 459 c 0
 263 459 270 458 278 457 c 1
 263 482 255 512 255 542 c 0
 255 634 328 707 420 707 c 0
 512 707 585 634 585 542 c 0
 585 512 577 482 562 457 c 1
 570 458 577 459 585 459 c 0xd0
EndSplineSet
EndChar

StartChar: uni2720
Encoding: 187 10016 187
Width: 930
Flags: HW
HStem: 263 74<391 428 502 539>
VStem: 428 74<226 263 337 374>
LayerCount: 2
Fore
SplineSet
653 675 m 1
 502 374 l 1
 502 337 l 1
 539 337 l 1
 840 488 l 1
 840 112 l 1
 539 263 l 1
 502 263 l 1
 502 226 l 1
 653 -75 l 1
 278 -75 l 1
 428 226 l 1
 428 263 l 1
 391 263 l 1
 90 112 l 1
 90 488 l 1
 391 337 l 1
 428 337 l 1
 428 374 l 1
 278 675 l 1
 653 675 l 1
EndSplineSet
EndChar

StartChar: uni2721
Encoding: 188 10017 188
Width: 930
Flags: HW
HStem: 84 59<193 306 408 522 624 737> 457 59<193 306 408 522 624 737>
LayerCount: 2
Fore
SplineSet
306 143 m 1
 249 241 l 1
 193 143 l 1
 306 143 l 1
681 241 m 1
 624 143 l 1
 737 143 l 1
 681 241 l 1
522 516 m 1
 465 615 l 1
 408 516 l 1
 522 516 l 1
647 300 m 1
 556 457 l 1
 374 457 l 1
 283 300 l 1
 374 143 l 1
 556 143 l 1
 647 300 l 1
681 359 m 1
 737 457 l 1
 624 457 l 1
 681 359 l 1
306 457 m 1
 193 457 l 1
 249 359 l 1
 306 457 l 1
465 -133 m 1
 340 84 l 1
 90 84 l 1
 215 300 l 1
 90 516 l 1
 340 516 l 1
 465 733 l 1
 590 516 l 1
 840 516 l 1
 715 300 l 1
 840 84 l 1
 590 84 l 1
 465 -133 l 1
465 -15 m 1
 522 84 l 1
 408 84 l 1
 465 -15 l 1
EndSplineSet
EndChar

StartChar: uni2314
Encoding: 189 8980 189
Width: 720
Flags: HW
HStem: 493 74<240.007 479.993>
LayerCount: 2
Fore
SplineSet
526 451 m 1
 474 479 417 493 360 493 c 0
 303 493 246 479 194 451 c 1
 360 145 l 1
 526 451 l 1
561 516 m 2
 626 481 l 1
 382 30 l 1
 338 30 l 1
 94 481 l 1
 159 516 l 2
 221 550 291 567 360 567 c 0
 429 567 499 550 561 516 c 2
EndSplineSet
EndChar

StartChar: universal
Encoding: 190 8704 190
Width: 780
Flags: HW
HStem: 0 21G<316.465 463.535> 387 74<285 495> 687 20G<92 186.504 593.496 688>
LayerCount: 2
Fore
SplineSet
495 387 m 1
 285 387 l 1
 390 64 l 1
 495 387 l 1
92 707 m 1
 180 707 l 1
 260 461 l 1
 520 461 l 1
 600 707 l 1
 688 707 l 1
 457 0 l 1
 323 0 l 1
 92 707 l 1
EndSplineSet
EndChar

StartChar: existential
Encoding: 191 8707 191
Width: 660
Flags: HW
HStem: 0 74<90 478> 317 74<144 478> 633 74<90 478>
VStem: 478 92<74 317 391 633>
LayerCount: 2
Fore
SplineSet
90 0 m 1
 90 74 l 1
 478 74 l 1
 478 317 l 1
 144 317 l 1
 144 391 l 1
 478 391 l 1
 478 633 l 1
 90 633 l 1
 90 707 l 1
 570 707 l 1
 570 0 l 1
 90 0 l 1
EndSplineSet
EndChar

StartChar: uni2204
Encoding: 192 8708 192
Width: 660
Flags: HW
HStem: -0 74<90 177 267 478> 317 74<144 262 351 478> 633 74<90 347 436 478>
VStem: 478 92<74 317 391 633>
LayerCount: 2
Fore
SplineSet
351 391 m 1
 478 391 l 1
 478 633 l 1
 416 633 l 1
 351 391 l 1
267 74 m 1
 478 74 l 1
 478 317 l 1
 332 317 l 1
 267 74 l 1
403 841 m 1
 467 824 l 1
 436 707 l 1
 570 707 l 1
 570 0 l 1
 478 0 l 1
 247 -0 l 1
 211 -134 l 1
 146 -117 l 1
 177 -0 l 1
 90 0 l 1
 90 74 l 1
 197 74 l 1
 262 317 l 1
 144 317 l 1
 144 391 l 1
 282 391 l 1
 347 633 l 1
 90 633 l 1
 90 707 l 1
 367 707 l 1
 403 841 l 1
EndSplineSet
EndChar

StartChar: uni2132
Encoding: 193 8498 193
Width: 660
Flags: HW
HStem: 0 74<90 478> 317 74<144 478> 687 20G<478 570>
VStem: 478 92<74 317 391 707>
LayerCount: 2
Fore
SplineSet
90 0 m 1
 90 74 l 1
 478 74 l 1
 478 317 l 1
 144 317 l 1
 144 391 l 1
 478 391 l 1
 478 707 l 1
 570 707 l 1
 570 0 l 1
 90 0 l 1
EndSplineSet
EndChar

StartChar: uni2141
Encoding: 194 8513 194
Width: 780
Flags: HW
HStem: -9 92<221.503 431.465> 262 74<183 330> 551 21G<129.053 168.5> 615 92<215.723 426.793>
VStem: 90 93<112.9 262> 598 92<251.795 451.915>
LayerCount: 2
Fore
SplineSet
598 354 m 0
 598 504 466 615 322 615 c 0
 257 615 194 592 143 551 c 1
 90 627 l 1
 155 678 235 707 318 707 c 0
 521 707 690 552 690 354 c 0
 690 154 529 -9 330 -9 c 0
 242 -9 157 22 90 80 c 1
 90 336 l 1
 330 336 l 1
 330 262 l 1
 183 262 l 1
 183 125 l 1
 227 97 278 83 330 83 c 0
 478 83 598 205 598 354 c 0
EndSplineSet
EndChar

StartChar: uni2201
Encoding: 195 8705 195
Width: 600
Flags: HW
HStem: 0 93<232.052 370.541> 615 92<232.052 368.128>
VStem: 90 93<139.953 567.047> 418 92<139.953 200 507 567.047>
LayerCount: 2
Fore
SplineSet
510 507 m 1
 418 507 l 1
 418 568 363 615 300 615 c 0
 237 615 183 568 183 507 c 2
 183 200 l 2
 183 139 237 93 300 93 c 0
 363 93 418 139 418 200 c 1
 510 200 l 1
 510 88 414 0 300 0 c 0
 186 0 90 88 90 200 c 2
 90 507 l 2
 90 619 186 707 300 707 c 0
 414 707 510 619 510 507 c 1
EndSplineSet
EndChar

StartChar: uni266D
Encoding: 196 9837 196
Width: 554
Flags: HW
HStem: 472 74<216.683 328.335> 734 20G<90 164>
VStem: 90 74<105 421.894 502 754> 365 99<280.82 432.165>
LayerCount: 2
Fore
SplineSet
164 398 m 1
 164 105 l 1
 259 172 365 244 365 358 c 0
 365 417 331 472 277 472 c 0
 230 472 195 435 164 398 c 1
90 754 m 1
 164 754 l 1
 164 502 l 1
 197 528 235 546 277 546 c 0
 380 546 464 462 464 358 c 0
 464 225 251 76 90 -37 c 1
 90 754 l 1
EndSplineSet
EndChar

StartChar: uni266E
Encoding: 197 9838 197
Width: 554
Flags: HW
HStem: -220 21G<390 464> 0 21G<90 165> 526 20G<389 464> 734 20G<90 164>
VStem: 90 74<131 355 466 754> 390 74<-220 80 191 415>
LayerCount: 2
Fore
SplineSet
390 80 m 1
 90 0 l 1
 90 754 l 1
 164 754 l 1
 164 466 l 1
 464 546 l 1
 464 -220 l 1
 390 -220 l 1
 390 80 l 1
390 191 m 1
 390 415 l 1
 164 355 l 1
 164 131 l 1
 390 191 l 1
EndSplineSet
EndChar

StartChar: uni266F
Encoding: 198 9839 198
Width: 554
Flags: HW
HStem: -220 21G<147 221> 0 21G<90 147> 526 20G<408 464> 734 20G<334 408>
VStem: 147 74<-220 15 146 350 481 686> 334 74<-152 65 196 400 531 754>
LayerCount: 2
Fore
SplineSet
334 176 m 1
 334 400 l 1
 221 370 l 1
 221 146 l 1
 334 176 l 1
408 -152 m 1
 334 -152 l 1
 334 65 l 1
 221 35 l 1
 221 -220 l 1
 147 -220 l 1
 147 15 l 1
 90 0 l 1
 90 111 l 1
 147 126 l 1
 147 350 l 1
 90 335 l 1
 90 446 l 1
 147 461 l 1
 147 686 l 1
 221 686 l 1
 221 481 l 1
 334 511 l 1
 334 754 l 1
 408 754 l 1
 408 531 l 1
 464 546 l 1
 464 435 l 1
 408 420 l 1
 408 196 l 1
 464 211 l 1
 464 100 l 1
 408 85 l 1
 408 -152 l 1
EndSplineSet
EndChar

StartChar: aleph
Encoding: 199 8501 199
Width: 794
Flags: HW
HStem: 0 21G<90 201> 689 20G<605 704>
VStem: 90 111<0 225.495> 605 99<546.496 705>
LayerCount: 2
Fore
SplineSet
201 0 m 1
 90 0 l 1
 90 169 120 342 217 479 c 1
 164 542 119 610 90 688 c 1
 194 726 l 1
 250 574 366 460 477 342 c 1
 561 443 605 572 605 705 c 1
 704 709 l 1
 704 548 645 393 540 273 c 1
 608 196 669 114 704 17 c 1
 611 -17 l 1
 549 154 406 275 281 407 c 1
 209 290 201 141 201 0 c 1
EndSplineSet
EndChar

StartChar: uni2136
Encoding: 200 8502 200
Width: 794
Flags: HW
HStem: 0 107<104 535 627 690> 600 107<164 493.695>
VStem: 535 92<107 557.021>
LayerCount: 2
Fore
SplineSet
164 707 m 1
 397 707 l 2
 568 707 627 644 627 471 c 2
 627 107 l 1
 718 107 l 1
 690 0 l 1
 76 0 l 1
 104 107 l 1
 535 107 l 1
 535 471 l 2
 535 568 496 600 397 600 c 2
 136 600 l 1
 164 707 l 1
EndSplineSet
EndChar

StartChar: uni2137
Encoding: 201 8503 201
Width: 614
Flags: HW
HStem: 0 97<99 211.4>
LayerCount: 2
Fore
SplineSet
99 97 m 1
 144 97 l 2
 191 97 214 112 232 143 c 2
 349 345 l 1
 344 387 339 429 333 471 c 0
 328 510 312 548 279 567 c 2
 171 629 l 1
 226 726 l 1
 335 663 l 2
 399 626 415 546 426 471 c 0
 448 312 461 149 524 0 c 1
 425 0 l 1
 394 72 377 148 365 225 c 1
 296 106 l 2
 262 48 232 0 144 0 c 2
 81 0 l 1
 99 97 l 1
EndSplineSet
EndChar

StartChar: uni2138
Encoding: 202 8504 202
Width: 734
Flags: HW
HStem: 0 21G<441 533> 600 107<104 441 533 630>
VStem: 441 92<0 600>
LayerCount: 2
Fore
SplineSet
104 707 m 1
 658 707 l 1
 630 600 l 1
 533 600 l 1
 533 0 l 1
 441 0 l 1
 441 600 l 1
 76 600 l 1
 104 707 l 1
EndSplineSet
EndChar

StartChar: weierstrass
Encoding: 203 8472 203
Width: 688
Flags: HW
HStem: -220 74<78.1329 143.501> 0 74<326.039 452.457> 445 74<367.772 521.789> 526 20G<148.5 195.188>
VStem: -8 73<-134.128 50.915> 160 97<-124.054 -1.79784> 538 100<244.793 427.703>
LayerCount: 2
Fore
SplineSet
119 -146 m 0
 139 -146 160 -101 160 -71 c 0
 160 -22 129 16 90 63 c 1
 80 29 65 -27 65 -70 c 0
 65 -113 79 -146 119 -146 c 0
-8 -72 m 0
 -8 -52 -5 22 42 139 c 1
 32 167 27 197 27 228 c 0
 27 364 109 546 188 546 c 1
 211 482 l 1
 177 482 138 378 127 298 c 1
 217 428 342 519 484 519 c 0
 576 519 638 439 638 330 c 0
 638 160 504 0 374 0 c 0
 349 0 325 5 304 13 c 1
 332 86 l 1
 350 78 369 74 390 74 c 0
 422 74 456 91 476 120 c 0
 505 161 538 341 538 380 c 0
 538 435 489 445 469 445 c 0
 326 445 209 330 137 183 c 1
 168 106 257 59 257 -42 c 0
 257 -126 182 -220 103 -220 c 0
 26 -220 -8 -154 -8 -72 c 0
EndSplineSet
EndChar
